<svg width="40" height="40" viewBox="0 0 40 40" fill="none" xmlns="http://www.w3.org/2000/svg">
<rect width="40" height="40" rx="6" fill="#FEF3F1"/>
<path d="M12.2084 24.7083C12.2084 25.2609 12.4279 25.7908 12.8186 26.1815C13.2093 26.5722 13.7392 26.7917 14.2917 26.7917C14.8442 26.7917 15.3741 26.5722 15.7648 26.1815C16.1555 25.7908 16.375 25.2609 16.375 24.7083C16.375 24.1558 16.1555 23.6259 15.7648 23.2352C15.3741 22.8445 14.8442 22.625 14.2917 22.625C13.7392 22.625 13.2093 22.8445 12.8186 23.2352C12.4279 23.6259 12.2084 24.1558 12.2084 24.7083ZM22.625 24.7083C22.625 25.2609 22.8445 25.7908 23.2352 26.1815C23.6259 26.5722 24.1558 26.7917 24.7084 26.7917C25.2609 26.7917 25.7908 26.5722 26.1815 26.1815C26.5722 25.7908 26.7917 25.2609 26.7917 24.7083C26.7917 24.1558 26.5722 23.6259 26.1815 23.2352C25.7908 22.8445 25.2609 22.625 24.7084 22.625C24.1558 22.625 23.6259 22.8445 23.2352 23.2352C22.8445 23.6259 22.625 24.1558 22.625 24.7083Z" stroke="#E41D1D" stroke-width="2" stroke-linecap="round" stroke-linejoin="round"/>
<path d="M12.2083 24.7083H10.125V13.2499C10.125 12.9737 10.2347 12.7087 10.4301 12.5133C10.6254 12.318 10.8904 12.2083 11.1667 12.2083H20.5417V24.7083M16.375 24.7083H22.625M26.7917 24.7083H28.875V18.4583M28.875 18.4583H20.5417M28.875 18.4583L25.75 13.2499H20.5417M13.25 17.4166H17.4167M15.3333 15.3333V19.4999" stroke="#E41D1D" stroke-width="2" stroke-linecap="round" stroke-linejoin="round"/>
</svg>
