<svg width="58" height="58" viewBox="0 0 58 58" fill="none" xmlns="http://www.w3.org/2000/svg">
<circle cx="29" cy="29" r="29" fill="#EFF2FC"/>
<path d="M18.875 36.375C18.875 37.1043 19.1647 37.8038 19.6805 38.3195C20.1962 38.8353 20.8957 39.125 21.625 39.125C22.3543 39.125 23.0538 38.8353 23.5695 38.3195C24.0853 37.8038 24.375 37.1043 24.375 36.375C24.375 35.6457 24.0853 34.9462 23.5695 34.4305C23.0538 33.9147 22.3543 33.625 21.625 33.625C20.8957 33.625 20.1962 33.9147 19.6805 34.4305C19.1647 34.9462 18.875 35.6457 18.875 36.375ZM32.625 36.375C32.625 37.1043 32.9147 37.8038 33.4305 38.3195C33.9462 38.8353 34.6457 39.125 35.375 39.125C36.1043 39.125 36.8038 38.8353 37.3195 38.3195C37.8353 37.8038 38.125 37.1043 38.125 36.375C38.125 35.6457 37.8353 34.9462 37.3195 34.4305C36.8038 33.9147 36.1043 33.625 35.375 33.625C34.6457 33.625 33.9462 33.9147 33.4305 34.4305C32.9147 34.9462 32.625 35.6457 32.625 36.375Z" stroke="#265CC0" stroke-width="2" stroke-linecap="round" stroke-linejoin="round"/>
<path d="M18.875 36.375H16.125V21.25C16.125 20.8853 16.2699 20.5356 16.5277 20.2777C16.7856 20.0199 17.1353 19.875 17.5 19.875H29.875V36.375M24.375 36.375H32.625M38.125 36.375H40.875V28.125M40.875 28.125H29.875M40.875 28.125L36.75 21.25H29.875M20.25 26.75H25.75M23 24V29.5" stroke="#265CC0" stroke-width="2" stroke-linecap="round" stroke-linejoin="round"/>
</svg>
