<svg width="24" height="24" viewBox="0 0 24 24" fill="none" xmlns="http://www.w3.org/2000/svg">
<path d="M6.75781 11.9326L3.42701 17.7017C3.24325 18.02 3.45414 18.4211 3.82051 18.4502L6.2496 18.6427C6.39978 18.6546 6.53659 18.7336 6.62199 18.8577L8.00331 20.8651C8.21164 21.1679 8.66446 21.1499 8.84822 20.8317L12.179 15.0626" stroke="#265CC0" stroke-width="1.5"/>
<path d="M17.2979 12.0474L20.6049 17.7754C20.7884 18.0932 20.5784 18.4938 20.2127 18.5237L17.7845 18.7225C17.6353 18.7348 17.4994 18.8132 17.4142 18.9364L16.0279 20.9398C15.8191 21.2416 15.3672 21.2231 15.1837 20.9053L11.8766 15.1773" stroke="#265CC0" stroke-width="1.5"/>
<rect x="5.75" y="2.75" width="12.5" height="12.5" rx="6.25" stroke="#265CC0" stroke-width="1.5"/>
<path d="M11.3342 6.0797C11.5437 5.43478 12.4561 5.43478 12.6656 6.0797L12.9584 6.98067C13.0521 7.26908 13.3209 7.46436 13.6241 7.46436H14.5715C15.2496 7.46436 15.5315 8.33209 14.9829 8.73067L14.2165 9.2875C13.9712 9.46575 13.8685 9.78171 13.9622 10.0701L14.255 10.9711C14.4645 11.616 13.7264 12.1523 13.1778 11.7537L12.4114 11.1969C12.166 11.0186 11.8338 11.0186 11.5885 11.1969L10.822 11.7537C10.2734 12.1523 9.53531 11.616 9.74486 10.9711L10.0376 10.0701C10.1313 9.78171 10.0287 9.46575 9.78331 9.2875L9.0169 8.73067C8.4683 8.33209 8.75024 7.46436 9.42835 7.46436H10.3757C10.6789 7.46436 10.9477 7.26908 11.0414 6.98067L11.3342 6.0797Z" fill="#265CC0"/>
</svg>
