<svg width="24" height="21" viewBox="0 0 24 21" fill="none" xmlns="http://www.w3.org/2000/svg">
<path d="M9.59375 9.40625C9.59375 9.2322 9.66289 9.06528 9.78596 8.94221C9.90903 8.81914 10.076 8.75 10.25 8.75H13.75C13.924 8.75 14.091 8.81914 14.214 8.94221C14.3371 9.06528 14.4062 9.2322 14.4062 9.40625C14.4062 9.5803 14.3371 9.74722 14.214 9.87029C14.091 9.99336 13.924 10.0625 13.75 10.0625H10.25C10.076 10.0625 9.90903 9.99336 9.78596 9.87029C9.66289 9.74722 9.59375 9.5803 9.59375 9.40625ZM23.1562 5.03125V19.0312C23.1562 19.4374 22.9949 19.8268 22.7078 20.114C22.4206 20.4012 22.0311 20.5625 21.625 20.5625H2.375C1.96889 20.5625 1.57941 20.4012 1.29224 20.114C1.00508 19.8268 0.84375 19.4374 0.84375 19.0312V5.03125C0.84375 4.62514 1.00508 4.23566 1.29224 3.94849C1.57941 3.66133 1.96889 3.5 2.375 3.5H6.96875V2.40625C6.96875 1.76807 7.22226 1.15603 7.67352 0.704774C8.12478 0.253515 8.73682 0 9.375 0H14.625C15.2632 0 15.8752 0.253515 16.3265 0.704774C16.7777 1.15603 17.0312 1.76807 17.0312 2.40625V3.5H21.625C22.0311 3.5 22.4206 3.66133 22.7078 3.94849C22.9949 4.23566 23.1562 4.62514 23.1562 5.03125ZM8.28125 3.5H15.7188V2.40625C15.7188 2.11617 15.6035 1.83797 15.3984 1.63285C15.1933 1.42773 14.9151 1.3125 14.625 1.3125H9.375C9.08492 1.3125 8.80672 1.42773 8.6016 1.63285C8.39648 1.83797 8.28125 2.11617 8.28125 2.40625V3.5ZM2.15625 5.03125V9.71141C5.1698 11.377 8.55679 12.2505 12 12.25C15.4434 12.2506 18.8305 11.3767 21.8438 9.71031V5.03125C21.8438 4.97323 21.8207 4.91759 21.7797 4.87657C21.7387 4.83555 21.683 4.8125 21.625 4.8125H2.375C2.31698 4.8125 2.26134 4.83555 2.22032 4.87657C2.1793 4.91759 2.15625 4.97323 2.15625 5.03125ZM21.8438 19.0312V11.1967C18.7953 12.7515 15.422 13.5622 12 13.5625C8.57803 13.5629 5.20466 12.7525 2.15625 11.1978V19.0312C2.15625 19.0893 2.1793 19.1449 2.22032 19.1859C2.26134 19.227 2.31698 19.25 2.375 19.25H21.625C21.683 19.25 21.7387 19.227 21.7797 19.1859C21.8207 19.1449 21.8438 19.0893 21.8438 19.0312Z" fill="#585858"/>
</svg>
