<svg width="40" height="40" viewBox="0 0 40 40" fill="none" xmlns="http://www.w3.org/2000/svg">
<rect width="40" height="40" rx="6" fill="#FEF1F1"/>
<path d="M9.5 14.1667V27.0001M9.5 22.3334H30.5M30.5 27.0001V17.6667C30.5 17.0479 30.2542 16.4544 29.8166 16.0168C29.379 15.5792 28.7855 15.3334 28.1667 15.3334H18.8333V22.3334M13 17.6667C13 17.9762 13.1229 18.2729 13.3417 18.4917C13.5605 18.7105 13.8572 18.8334 14.1667 18.8334C14.4761 18.8334 14.7728 18.7105 14.9916 18.4917C15.2104 18.2729 15.3333 17.9762 15.3333 17.6667C15.3333 17.3573 15.2104 17.0606 14.9916 16.8418C14.7728 16.623 14.4761 16.5001 14.1667 16.5001C13.8572 16.5001 13.5605 16.623 13.3417 16.8418C13.1229 17.0606 13 17.3573 13 17.6667Z" stroke="#E41D1D" stroke-width="2" stroke-linecap="round" stroke-linejoin="round"/>
</svg>
