<svg width="52" height="52" viewBox="0 0 52 52" fill="none" xmlns="http://www.w3.org/2000/svg">
<circle cx="26" cy="26" r="26" fill="#E3C6C6"/>
<g clip-path="url(#clip0_332_3279)">
<path d="M32.647 27.664C32.6178 27.5821 32.5831 27.5022 32.543 27.425L32.548 27.436C32.402 27.095 31.228 24.827 31.032 24.518L25.581 14L19.991 24.776C19.801 25.086 18.759 27.096 18.615 27.436L18.558 27.562C18.1863 28.4681 17.9967 29.4386 18 30.418C18 32.4289 18.7989 34.3574 20.2208 35.7793C21.6427 37.2012 23.5712 38 25.582 38C27.5929 38 29.5214 37.2012 30.9433 35.7793C32.3652 34.3574 33.164 32.4289 33.164 30.418V30.412L33.165 30.311C33.165 29.356 32.975 28.445 32.63 27.615L32.647 27.662V27.664ZM25.585 36.019C24.6151 36.0192 23.6619 35.7668 22.8191 35.2867C21.9764 34.8065 21.2732 34.1152 20.7788 33.2808C20.2844 32.4463 20.0159 31.4975 19.9996 30.5277C19.9834 29.5579 20.2199 28.6006 20.686 27.75L20.671 27.779C20.5978 28.1684 20.561 28.5638 20.561 28.96V28.961C20.5621 30.7366 21.2679 32.4391 22.5234 33.6946C23.7789 34.9501 25.4815 35.6559 27.257 35.657C27.37 35.657 27.491 35.657 27.603 35.651C26.9639 35.8966 26.2847 36.0214 25.6 36.019H25.577H25.585Z" fill="#B70404"/>
</g>
<defs>
<clipPath id="clip0_332_3279">
<rect width="16" height="24" fill="white" transform="translate(18 14)"/>
</clipPath>
</defs>
</svg>
