<svg width="52" height="52" viewBox="0 0 52 52" fill="none" xmlns="http://www.w3.org/2000/svg">
<circle cx="26" cy="26" r="26" fill="#CEE3C6"/>
<path d="M11.0011 18.9707C11.0011 16.8682 10.9999 14.7657 11.0017 12.6632C11.0024 11.8676 11.5482 11.2362 12.3584 11.0909C12.4738 11.0702 12.594 11.0677 12.7119 11.0676C15.5595 11.0662 18.4071 11.0662 21.2547 11.0662C21.8063 11.0662 22.3583 11.077 22.9096 11.0635C23.3331 11.0531 23.6838 11.2071 23.9774 11.4765C24.1963 11.6772 24.3257 11.9472 24.3468 12.2375C24.3746 12.6212 24.3623 13.0076 24.367 13.3928C24.3705 13.6899 24.3764 13.9871 24.3764 14.2842C24.3771 18.0029 24.3762 21.7216 24.3784 25.4402C24.3785 25.7638 24.3176 26.0664 24.1157 26.3307C23.8262 26.71 23.4351 26.8981 22.947 26.8981C22.0833 26.8981 21.2197 26.8984 20.356 26.8985C17.8144 26.8987 15.2728 26.8973 12.7312 26.9005C12.3548 26.901 12.0049 26.8274 11.6978 26.6125C11.2394 26.2916 11.0024 25.8561 11.0007 25.3068C10.999 24.7919 11.0009 24.277 11.001 23.7621C11.0011 22.165 11.001 20.5679 11.0011 18.9707V18.9707ZM20.3914 21.0784C20.3182 21.0784 20.2604 21.0784 20.2026 21.0784C19.4626 21.0784 18.7225 21.0784 17.9824 21.0783C17.6258 21.0783 17.2878 21.0021 16.971 20.8431C16.0876 20.3996 15.6299 19.437 15.8577 18.504C16.087 17.5643 16.9434 16.8977 17.9474 16.8886C18.7022 16.8818 19.4572 16.8871 20.212 16.887C20.269 16.887 20.326 16.887 20.3828 16.887V12.2333H20.1787C18.2051 12.2333 16.2315 12.2333 14.2579 12.2333C13.7398 12.2333 13.2217 12.2357 12.7037 12.2314C12.5166 12.2299 12.3523 12.2768 12.2677 12.4425C12.2203 12.5355 12.2082 12.653 12.2079 12.7595C12.1999 15.943 12.1947 19.1264 12.1911 22.3099C12.1906 22.7478 12.2029 23.1858 12.2051 23.6237C12.206 23.8138 12.1928 24.004 12.192 24.1942C12.1908 24.4698 12.1956 24.7454 12.1966 25.021C12.197 25.1294 12.1857 25.2383 12.1941 25.3459C12.2134 25.5905 12.4101 25.7353 12.7203 25.7357C13.7803 25.7368 14.8403 25.7345 15.9003 25.7368C16.7881 25.7388 17.6759 25.7482 18.5637 25.7491C19.1307 25.7497 19.6978 25.741 20.2648 25.7358C20.3031 25.7354 20.3414 25.7286 20.3914 25.7236V21.0785L20.3914 21.0784ZM23.1445 19.9127C23.1587 19.881 23.1658 19.8724 23.1658 19.8638C23.1679 19.292 23.1683 18.7201 23.1719 18.1482C23.1725 18.0562 23.1175 18.0533 23.0471 18.0533C21.3448 18.0541 19.6424 18.0517 17.9401 18.0557C17.5538 18.0566 17.2092 18.3017 17.073 18.646C16.8265 19.2689 17.2911 19.9104 17.996 19.9115C19.6638 19.9142 21.3316 19.9126 22.9994 19.9127C23.0482 19.9127 23.097 19.9127 23.1445 19.9127H23.1445ZM21.6148 21.0847V25.7359C22.0486 25.7359 22.4717 25.7376 22.8948 25.7353C23.1133 25.7341 23.171 25.6739 23.1711 25.4573C23.1714 24.0521 23.1713 22.647 23.1708 21.2418C23.1708 21.1912 23.1655 21.1407 23.1623 21.0847H21.6148L21.6148 21.0847ZM23.1713 16.8777C23.1713 16.8178 23.1712 16.7666 23.1713 16.7154C23.1754 15.3212 23.1795 13.927 23.1836 12.5328C23.1843 12.2866 23.1355 12.2383 22.8861 12.2346C22.4982 12.2289 22.1102 12.2251 21.7224 12.2147C21.6137 12.2118 21.5929 12.2543 21.5941 12.35C21.6013 12.9015 21.604 13.4532 21.6047 14.0048C21.6058 14.9051 21.6043 15.8055 21.6039 16.7059C21.6039 16.7615 21.6039 16.817 21.6039 16.8778H23.1713V16.8777Z" fill="#4AC002"/>
<path d="M35.5223 22.0496H38.1548C38.1548 22.3263 38.1591 22.5923 38.1525 22.8581C38.15 22.9572 38.183 23.0136 38.2757 23.0579C39.1367 23.4698 39.7468 24.1335 40.1654 24.9444C41.2136 26.975 41.2578 29.0572 40.3919 31.1552C40.0442 31.9976 39.5028 32.7145 38.7286 33.2482C38.5886 33.3447 38.439 33.4307 38.2854 33.5054C38.1906 33.5515 38.1616 33.6076 38.1639 33.7053C38.17 33.9669 38.166 34.2286 38.166 34.5157C37.9794 34.5157 37.8035 34.5242 37.6291 34.5131C37.4891 34.5041 37.4438 34.5431 37.445 34.6848C37.4518 35.5239 37.4496 36.363 37.448 37.202C37.4441 39.3249 35.7125 40.9992 33.5188 40.9996C29.3437 41.0004 25.1686 41.0005 20.9936 40.9994C19.0887 40.9989 17.5195 39.7714 17.1284 37.9689C17.0762 37.7283 17.0526 37.4774 17.0522 37.2312C17.0472 33.894 17.0486 30.5568 17.0488 27.2196C17.0488 27.1777 17.053 27.1357 17.0559 27.0844H18.2562C18.2562 27.1551 18.2562 27.2157 18.2562 27.2762C18.2562 30.5467 18.2595 33.8172 18.2534 37.0877C18.2522 37.7196 18.4031 38.2977 18.8063 38.7995C19.3519 39.4784 20.0746 39.8286 20.9661 39.8341C21.8988 39.8398 22.8316 39.8355 23.7643 39.8355C27.0214 39.8355 30.2786 39.8353 33.5357 39.8357C35.0237 39.8358 36.2334 38.6776 36.2399 37.241C36.2437 36.3876 36.2409 35.5342 36.241 34.6809C36.241 34.634 36.241 34.587 36.241 34.5203H35.5243C35.5243 34.2256 35.5282 33.9506 35.5206 33.676C35.5192 33.6258 35.484 33.5519 35.442 33.531C34.5257 33.0754 33.9033 32.3529 33.4516 31.4805C32.8732 30.3632 32.6642 29.1706 32.7151 27.9305C32.748 27.1292 32.9069 26.3514 33.2079 25.6025C33.4338 25.0403 33.7246 24.5103 34.1358 24.0555C34.509 23.6427 34.9183 23.2631 35.4425 23.0225C35.481 23.0049 35.5178 22.9404 35.5188 22.8969C35.5257 22.6171 35.5224 22.337 35.5224 22.0497L35.5223 22.0496ZM39.7362 27.6867C39.7397 27.6588 39.7442 27.6446 39.7427 27.631C39.6332 26.6041 39.3363 25.641 38.6469 24.8307C38.4371 24.5841 38.1854 24.3551 37.9101 24.1813C37.6697 24.0294 37.3709 23.9616 37.0941 23.8671C37.0092 23.8381 36.974 23.8016 36.9767 23.7162C36.9812 23.5782 36.975 23.4398 36.9783 23.3017C36.9805 23.209 36.9292 23.1921 36.8475 23.1926C36.7687 23.193 36.7111 23.2028 36.7129 23.2976C36.7153 23.4215 36.7064 23.5458 36.7141 23.6692C36.7207 23.7758 36.686 23.8247 36.5731 23.8597C36.2325 23.9654 35.8935 24.0658 35.6018 24.2924C35.1747 24.6242 34.8235 25.0174 34.5905 25.4859C34.3807 25.9076 34.2317 26.3607 34.0904 26.8101C34.003 27.0882 33.98 27.3853 33.9258 27.6868H39.7362L39.7362 27.6867ZM39.7476 28.8707H33.9469C33.9516 28.9409 33.9527 29.0016 33.9601 29.0617C34.0217 29.5557 34.1299 30.0402 34.3229 30.502C34.7634 31.5559 35.3978 32.4242 36.6321 32.7067C36.6729 32.7161 36.721 32.789 36.7255 32.8359C36.7384 32.9682 36.7343 33.1026 36.7289 33.2359C36.7254 33.3221 36.7562 33.3533 36.8472 33.353C36.9417 33.3527 36.965 33.3131 36.9619 33.2309C36.9571 33.1072 36.9665 32.9827 36.9588 32.8592C36.9525 32.7598 36.9893 32.7152 37.0915 32.6929C37.924 32.5119 38.5118 32.0145 38.9432 31.3278C39.0835 31.1046 39.2081 30.8696 39.3138 30.6293C39.5584 30.0732 39.6952 29.4899 39.7476 28.8707Z" fill="#4AC002"/>
<path d="M32.9905 23.195H31.7003C31.6943 23.2696 31.6835 23.3387 31.6841 23.4076C31.6884 23.9077 31.6998 24.4078 31.7001 24.9079C31.7013 26.9567 31.7064 29.0056 31.696 31.0543C31.6895 32.3266 30.6364 33.3254 29.3201 33.3266C26.7096 33.329 24.0989 33.3293 21.4884 33.3266C20.2082 33.3253 19.1474 32.3401 19.1308 31.1125C19.1131 29.7969 19.1259 28.481 19.1257 27.1652C19.1257 27.1418 19.1302 27.1185 19.1338 27.0847H20.333C20.333 27.1447 20.333 27.1999 20.333 27.2551C20.3331 28.5089 20.3313 29.7627 20.334 31.0165C20.3353 31.5778 20.7076 32.0257 21.2608 32.1381C21.3516 32.1566 21.447 32.1595 21.5402 32.1595C24.1212 32.1606 26.7022 32.1609 29.2832 32.16C29.9951 32.1598 30.49 31.6786 30.4902 30.9871C30.4911 28.4461 30.4906 25.9051 30.4906 23.3641C30.4906 23.3175 30.4906 23.271 30.4906 23.2059H29.1768C29.1768 23.132 29.1768 23.0765 29.1768 23.0211C29.1768 22.4251 29.1746 21.8292 29.1789 21.2333C29.1797 21.1328 29.1479 21.0845 29.0484 21.0449C26.8821 20.1828 25.5483 18.1145 25.7028 15.8553C25.7525 15.1284 25.956 14.4401 26.3059 13.7946C26.5498 13.3448 26.8524 12.9335 27.2257 12.5751C27.7263 12.0945 28.2863 11.6931 28.9416 11.4278C32.3088 10.0644 35.9088 12.1088 36.4343 15.4467C36.8086 17.824 35.4337 20.1463 33.133 21.0471C33.0316 21.0868 33.0043 21.1361 33.0045 21.235C33.006 21.8349 33.0012 22.4348 32.998 23.0348C32.9978 23.0814 32.9937 23.1279 32.9905 23.1949V23.195ZM31.0958 20.2673C33.433 20.255 35.2973 18.4406 35.287 16.1884C35.2769 13.9557 33.3771 12.1503 31.0519 12.1635C28.7428 12.1766 26.8861 14.0054 26.9009 16.2521C26.9155 18.4732 28.8026 20.2795 31.0958 20.2673H31.0958ZM31.7937 21.4326H30.3815C30.3815 21.5805 30.3875 21.7421 30.3794 21.9031C30.3739 22.0102 30.4115 22.0418 30.5221 22.0415C30.8767 22.0404 31.2314 22.051 31.586 22.0551C31.6569 22.0559 31.7279 22.0479 31.7937 22.0442V21.4326V21.4326Z" fill="#4AC002"/>
<path d="M31.9172 16.7385C31.8647 16.6963 31.8279 16.6666 31.7807 16.6287C31.5838 16.8145 31.3514 16.9119 31.074 16.8733C30.8926 16.848 30.737 16.7695 30.6123 16.6382C30.3232 16.3338 30.3379 15.9627 30.6591 15.5482C30.6281 15.5101 30.5958 15.4704 30.554 15.4191C31.4776 14.959 32.3952 14.502 33.3127 14.0449L33.3421 14.0672C32.8688 14.9545 32.3955 15.8418 31.9172 16.7385H31.9172Z" fill="#4AC002"/>
</svg>
