<svg width="52" height="52" viewBox="0 0 52 52" fill="none" xmlns="http://www.w3.org/2000/svg">
<circle cx="26" cy="26" r="26" fill="#C6D5E3"/>
<path d="M15.5706 14L14 15.4986V36.5098L15.4579 38H36.5098L38 36.5098V15.4919L36.5098 14H15.5706ZM25.4977 15.7341V17.9628H26.5023V15.7341C27.9144 15.7509 29.3209 15.8363 30.666 15.9926L29.9795 18.733L30.9507 18.9786L31.6651 16.1237C33.1833 16.3453 34.5953 16.6607 35.8233 17.0698L33.1442 23.3209C31.6874 22.9581 29.6335 22.7405 27.4791 22.6735C27.7079 22.9805 27.8419 23.36 27.8419 23.7674C27.8419 24.7777 27.0102 25.6093 26 25.6093C24.9898 25.6093 24.1581 24.7777 24.1581 23.7674C24.1581 23.36 24.2921 22.9805 24.5209 22.6735C22.3609 22.7405 20.3126 22.9581 18.8558 23.3209L16.1767 17.0698C17.4047 16.6607 18.8167 16.3453 20.3349 16.1237L21.0493 18.9786L22.0205 18.733L21.334 15.9926C22.6791 15.8363 24.0856 15.7509 25.4977 15.7341ZM23.7842 16.8722L22.8577 17.2673L24.9842 22.2326C25.2688 22.0484 25.5981 21.9367 25.9553 21.9256L23.7842 16.8722ZM26 22.9302C25.5312 22.9302 25.1628 23.2986 25.1628 23.7674C25.1628 24.2363 25.5312 24.6047 26 24.6047C26.4688 24.6047 26.8372 24.2363 26.8372 23.7674C26.8372 23.2986 26.4688 22.9302 26 22.9302ZM18.8558 31.7488H33.1442V32.7535H18.8558V31.7488ZM18.8558 34.4279H33.1442V35.4326H18.8558V34.4279Z" fill="#265CC0"/>
</svg>
