<svg width="40" height="40" viewBox="0 0 40 40" fill="none" xmlns="http://www.w3.org/2000/svg">
<rect width="40" height="40" rx="6" fill="#FEF1F1"/>
<path fill-rule="evenodd" clip-rule="evenodd" d="M15.9166 9.49992H17.0833V8.33325H13.5833V9.49992H14.75V10.6666H13.4841C13.3465 10.2772 13.0757 9.94903 12.7195 9.74004C12.3633 9.53105 11.9447 9.45472 11.5377 9.52453C11.1306 9.59434 10.7614 9.8058 10.4952 10.1215C10.229 10.4373 10.083 10.8369 10.083 11.2499C10.083 11.6629 10.229 12.0626 10.4952 12.3783C10.7614 12.694 11.1306 12.9055 11.5377 12.9753C11.9447 13.0451 12.3633 12.9688 12.7195 12.7598C13.0757 12.5508 13.3465 12.2226 13.4841 11.8333H14.75V13.0483C13.9344 13.1864 13.1941 13.6088 12.6602 14.2406C12.1264 14.8724 11.8334 15.6728 11.8333 16.4999V31.0833C11.8333 31.238 11.8948 31.3863 12.0041 31.4957C12.1135 31.6051 12.2619 31.6666 12.4166 31.6666H18.25C18.4047 31.6666 18.553 31.6051 18.6624 31.4957C18.7718 31.3863 18.8333 31.238 18.8333 31.0833V16.4999C18.8332 15.6728 18.5402 14.8724 18.0064 14.2406C17.4725 13.6088 16.7322 13.1864 15.9166 13.0483V11.8333H18.8333V10.6666H15.9166V9.49992ZM15.3333 14.1666C14.7145 14.1666 14.121 14.4124 13.6834 14.85C13.2458 15.2876 13 15.8811 13 16.4999V17.6666H17.6666V16.4999C17.6666 15.8811 17.4208 15.2876 16.9832 14.85C16.5456 14.4124 15.9521 14.1666 15.3333 14.1666ZM13 30.4999V18.8333H17.6666V30.4999H13ZM11.25 11.2499C11.25 11.0952 11.3114 10.9468 11.4208 10.8374C11.5302 10.728 11.6786 10.6666 11.8333 10.6666C11.988 10.6666 12.1364 10.728 12.2458 10.8374C12.3552 10.9468 12.4166 11.0952 12.4166 11.2499C12.4166 11.4046 12.3552 11.553 12.2458 11.6624C12.1364 11.7718 11.988 11.8333 11.8333 11.8333C11.6786 11.8333 11.5302 11.7718 11.4208 11.6624C11.3114 11.553 11.25 11.4046 11.25 11.2499ZM21.1666 18.2499C21.1666 17.6311 21.4125 17.0376 21.85 16.6C22.2876 16.1624 22.8811 15.9166 23.5 15.9166C24.1188 15.9166 24.7123 16.1624 25.1499 16.6C25.5875 17.0376 25.8333 17.6311 25.8333 18.2499V21.7499C25.8333 22.3688 25.5875 22.9622 25.1499 23.3998C24.7123 23.8374 24.1188 24.0833 23.5 24.0833C22.8811 24.0833 22.2876 23.8374 21.85 23.3998C21.4125 22.9622 21.1666 22.3688 21.1666 21.7499V18.2499ZM23.5 17.0833C23.1905 17.0833 22.8938 17.2062 22.675 17.425C22.4562 17.6438 22.3333 17.9405 22.3333 18.2499V21.7499C22.3333 22.0593 22.4562 22.3561 22.675 22.5749C22.8938 22.7937 23.1905 22.9166 23.5 22.9166C23.8094 22.9166 24.1061 22.7937 24.3249 22.5749C24.5437 22.3561 24.6666 22.0593 24.6666 21.7499V18.2499C24.6666 17.9405 24.5437 17.6438 24.3249 17.425C24.1061 17.2062 23.8094 17.0833 23.5 17.0833ZM28.1666 21.1666H26.4166V19.9999H28.1666C28.6308 19.9999 29.0759 20.1843 29.4041 20.5125C29.7323 20.8407 29.9166 21.2858 29.9166 21.7499C29.9166 22.214 29.7323 22.6592 29.4041 22.9874C29.0759 23.3155 28.6308 23.4999 28.1666 23.4999C28.0119 23.4999 27.8635 23.5614 27.7541 23.6708C27.6448 23.7802 27.5833 23.9285 27.5833 24.0833V24.6666H29.9166V25.8333H27C26.8452 25.8333 26.6969 25.7718 26.5875 25.6624C26.4781 25.553 26.4166 25.4046 26.4166 25.2499V24.0833C26.4166 23.6191 26.601 23.174 26.9292 22.8458C27.2574 22.5176 27.7025 22.3333 28.1666 22.3333C28.3213 22.3333 28.4697 22.2718 28.5791 22.1624C28.6885 22.053 28.75 21.9046 28.75 21.7499C28.75 21.5952 28.6885 21.4468 28.5791 21.3374C28.4697 21.228 28.3213 21.1666 28.1666 21.1666Z" fill="#E41D1D"/>
</svg>
