<svg width="65" height="65" viewBox="0 0 65 65" fill="none" xmlns="http://www.w3.org/2000/svg">
<circle cx="32.5" cy="32.5" r="32.5" fill="#E1E1E1"/>
<g clip-path="url(#clip0_667_9753)">
<path d="M31.1031 29.4031V29.697L31.2739 29.9908L31.5021 30.2224L31.8437 30.4571V30.2224L31.5021 29.9317L31.6729 29.6378L31.7863 29.5788V28.4064L31.4447 28.5821L31.2739 28.817L31.1031 29.1108V29.4031ZM20.3917 39.4806L20.4508 39.3657L20.1651 38.8355L19.9367 38.7188L20.3917 39.4806ZM39.3064 27.4707V27.6463L39.7614 27.528L39.8764 27.2359L39.5922 26.8253L39.7614 26.5316L40.162 26.8829L40.218 26.8253L40.162 26.7663L40.0472 26.5316L40.218 26.4724L40.0472 26.2392L39.648 26.4149L39.5348 26.6497L39.4772 26.8829L39.648 27.1767L39.5348 27.3524L39.3064 27.4707ZM40.8453 19.8509L40.732 19.6176L40.3904 19.442L40.1046 19.6176L40.4462 19.8509L40.8453 20.0873L40.8453 19.8509ZM21.9306 20.8474L23.8111 22.724C21.6305 25.0128 20.2864 28.4359 20.2784 31.6295H17.6589C17.7211 27.5904 19.2392 23.806 21.9306 20.8474ZM20.8499 35.6732L20.6775 35.6141L20.5067 35.4385L19.8235 35.3794L20.0517 35.6732L19.3685 35.5551L19.5377 35.3794L19.3685 35.2053L18.8561 35.4385L18.6837 35.7898L18.7395 36.5517L19.3111 37.9571L19.5951 38.3675L19.7659 38.4266L19.3111 37.6058L19.2551 37.1968L19.3111 37.0787L19.2551 36.8455H19.5377L19.9367 37.4892L19.9927 37.5482V37.0787L20.1651 37.1968L20.2225 37.43L20.62 37.5482L20.7908 37.43H20.8499V37.7814L21.0191 38.0161L21.249 38.0752L21.704 38.8962L22.0456 38.9536L22.103 38.6022L22.5004 39.2459L22.9554 39.832L23.412 40.4181L23.9244 41.0043L22.0456 42.8792C19.2392 39.6875 17.7945 36.4219 17.6589 32.1581H20.2784L20.3359 33.094L20.4508 33.974L20.62 34.7948L20.8499 35.6732ZM23.412 32.1581L23.4678 32.9182L23.1262 33.0365L23.0704 33.3287L22.4446 34.2087V35.4385L21.7614 35.6732H21.3624L21.134 34.7948L20.9616 33.974L20.8499 33.094L20.7908 32.1581H23.412ZM23.9819 39.7171L24.6093 40.0667L24.7225 40.185L24.2661 40.5954L23.6977 39.9503L23.9819 39.7171ZM26.3747 25.4199L28.2536 27.2933L27.6854 27.9977L27.2288 28.7578H27.1154L26.8313 28.817H26.7738L26.4897 29.0517H26.8313L27.1729 28.9351L27.1154 29.0517L26.8313 29.2274H26.7163L26.2614 29.5788L25.9181 29.5213L25.3483 30.6328L25.4633 30.8085L25.1217 31.1615L25.0641 31.6294H23.9244C23.9483 29.3391 24.8343 27.0716 26.3747 25.4199ZM28.2536 33.2122L28.426 33.1547L28.7676 33.4453L28.5968 33.5635L28.9958 33.7967L28.9384 33.5635L29.1666 33.2122L29.3934 33.4453L29.6216 33.7392L29.2226 33.8557L29.3934 34.2087L29.6791 34.0314L29.6216 33.9149L29.8499 33.7967L29.9649 33.2122L30.1915 33.7392L30.5347 34.1496L28.7086 36.0837C27.7029 34.8687 27.3421 34.0609 27.058 32.5095L27.457 32.9182H27.7986L28.2536 33.2122ZM25.6341 31.2206L25.6915 30.6918L25.9757 30.5162L26.5455 30.6328L26.603 30.6918L26.5455 31.6294H25.9181L25.6341 31.2206ZM24.7785 33.094L24.4943 33.4453H24.0393L23.9819 32.8016L23.9244 32.1581H24.7225L24.5517 32.8016L24.7785 33.094ZM26.4897 38.31C25.3291 37.0426 26.1528 34.4911 24.7225 33.4453L24.8933 33.0365L24.7225 32.7442L24.8933 32.3928H25.2349L25.3483 32.1581H25.9757L26.0905 32.3338L25.9757 32.9773L25.8623 33.094L26.0905 33.6226L25.9757 33.68L25.8623 33.5635L25.8049 33.6226L25.9181 33.9149L26.0905 34.2662H26.1481L26.2039 33.974L26.1481 33.8557V33.6226L26.0905 33.1547L26.2039 32.3928L26.0905 32.1581H26.5455C26.678 34.0478 27.1936 34.9919 28.311 36.4351L26.4897 38.31ZM42.2117 40.9467C44.4514 38.6482 45.6997 35.3924 45.8002 32.1581H48.4215C48.3177 36.092 46.7804 40.0553 44.0347 42.8201L42.2117 40.9467ZM41.4727 40.185L41.6993 39.9503L41.5285 38.8962L41.3577 38.8355L41.4727 38.6613L41.0145 38.5449L40.9586 38.8962L40.9012 39.3657L40.7894 39.4806L39.9912 38.6613C41.5301 37.0737 42.6747 34.4123 42.6699 32.1581H45.2878C45.2145 35.2644 43.9853 38.3166 41.8717 40.5364L41.4727 40.185ZM39.1932 42.7035L39.4198 42.1782L39.364 41.9434L39.7056 41.5904V41.4147L39.4198 41.18L39.648 40.653L40.0472 40.185L39.648 39.7171H39.364L39.1932 39.4232L39.648 39.0127L41.4727 40.9467L40.9586 41.4147L40.3904 41.8843L39.8188 42.2948L39.1932 42.7035ZM38.8515 37.4892L38.5658 37.1968L38.794 36.9621L39.0207 36.4351L38.9074 36.3168L39.0782 35.9064V35.6141L38.9648 35.2628L38.7382 35.1461L38.6791 35.3794L38.5083 35.3219L38.794 34.8523L39.0782 34.3253L39.3064 34.2087L39.4198 34.0314L39.4772 34.1496L39.648 33.9149L39.5348 33.7392H39.648L39.8764 33.7967L40.2754 33.8557L40.502 33.68L41.1294 33.5043L41.0145 33.3287V33.0365L41.3577 33.2122L41.4727 33.094L41.4136 32.8608L40.9586 33.0365L40.502 32.9182L40.162 32.1581H42.1543C42.0936 34.4304 41.1375 36.6452 39.648 38.31L39.364 38.0161L39.4772 37.6058L39.249 36.7848L38.8515 37.4892ZM37.8809 27.3524L39.7614 25.4199L40.3328 26.1802L40.9012 26.9993L40.6744 27.0602V27.528L41.3577 27.9402L41.586 28.5821L41.8127 29.1683L41.6993 29.344L41.4136 29.5213L41.3577 29.9317L41.1869 29.9908L41.0736 30.1649L40.9012 30.1074H40.6744L40.7894 29.9317L40.9012 29.344L41.0736 29.2864L40.5596 28.7578L40.218 28.8761L40.1046 29.2864L39.8764 29.5213L39.648 29.2864L39.5348 29.1108L39.7056 28.9927L39.7614 29.1683L39.8764 29.1108L39.8188 28.8761H39.648V28.9351L39.5348 28.9927L38.9648 28.29L38.794 28.1143L38.8515 28.0551L39.0207 27.9976L38.8515 27.9402L38.6216 27.9976L38.7382 28.1143H38.4524L38.2241 27.7054L37.8809 27.3524ZM38.1667 37.7239L37.5967 37.5482L37.4259 37.6058L37.1419 37.3725L36.8577 37.2559L37.2567 36.9046L37.7117 37.2559L38.0549 37.43L38.2816 37.6058L38.1667 37.7239ZM37.1993 28.817L37.4259 28.7578V28.7004L37.1993 28.5247L37.2567 27.9977L37.5409 27.7054L37.9975 28.349L37.94 28.7004L37.6543 28.4656L37.4819 28.5247L37.5409 28.7578H37.6543L37.5409 28.9927L37.4819 28.8761L37.1993 28.817ZM40.3328 30.6328C40.9347 30.3226 41.803 30.155 41.8127 29.2864L41.9276 29.697L41.6993 30.4571L41.6419 30.751L42.0409 30.2224L42.0984 30.9267L42.1543 31.6294H39.8764L39.8188 31.4538L40.1046 31.2206L40.162 31.1025L40.2754 30.9858H40.5596L40.617 30.8085L40.3328 30.6328ZM40.8453 24.3643H41.4727L41.6419 24.5382L41.5285 24.8322L42.4401 25.3592H42.6109L43.6931 26.6497L44.1481 26.5316C44.8377 28.1323 45.3486 29.8628 45.2878 31.6294H42.6699C42.0042 28.2029 43.7521 28.72 41.5285 25.5365L41.7552 25.6531L41.8127 25.5365L41.2444 25.1261L41.1869 25.3018C42.0266 26.2951 42.4401 27.5247 42.5533 28.817H42.3267L41.9835 28.1143L42.0984 27.9402L41.8717 27.6463V27.2933L41.7552 27.1176H41.5285L41.3002 26.7072L41.4727 26.7663L41.4136 26.589L41.586 26.4724L41.5285 26.3558L41.2444 26.4724L41.3577 26.0636L41.1869 26.0045L41.0736 26.2983L40.617 25.6531L40.1046 25.067L40.8453 24.3643ZM44.1481 20.9083C46.8714 23.6894 48.3863 27.702 48.4215 31.6294H45.8002C45.8162 29.8611 45.2751 27.4312 44.4338 25.8879L44.4897 25.8304L44.6621 25.947L44.7196 25.8304L44.2055 24.9504L43.6931 24.1885L43.0083 23.6025L42.3267 22.7831L44.1481 20.9083ZM33.0394 48.1528C52.8257 47.4437 54.9408 18.7015 34.634 15.5164V15.6347L34.5782 16.0434C38.3167 16.5754 41.0305 17.8609 43.8065 20.4977L42.0409 22.3137L42.0984 22.0197L41.8717 21.9031H41.586L41.6419 21.6684L41.4136 20.9083L41.0145 20.4386L39.648 19.6768L39.4772 19.8509L39.249 19.9116L39.5922 20.4386L39.8188 21.0247L39.9338 21.6684L39.9912 22.2545V22.6074L40.6744 23.4858L40.3328 23.5434L40.5596 23.8947L39.9338 24.4809L39.7056 24.0128L39.4772 24.4809L39.249 24.9504L39.364 25.067L37.5409 26.9419L37.1993 26.6497L36.6295 26.8829L36.8003 26.9993L36.6853 27.1176L36.5145 27.2359L36.4011 27.4707L36.2879 27.2933L35.8887 27.4707L36.0037 27.6463L36.2879 27.528L36.4587 27.5873V27.4707L36.5719 27.4116L36.6295 27.2933L36.8577 27.2359H37.0843L37.1993 27.3524L36.4587 28.1143L36.4011 27.9976L35.6046 28.1143L35.4322 28.29L35.2614 28.349L35.7754 27.881L35.6046 27.7629L35.148 28.4064H35.2614V28.5821L35.4322 28.6413L35.4881 28.9351L35.2055 28.8761L34.9198 28.9351L34.2366 28.5247L34.179 31.3372C35.9334 31.8477 37.7213 32.9757 37.4259 35.087C37.3462 36.8275 35.4322 37.5416 34.0658 37.8995L34.0082 39.3657C35.2454 39.8813 36.3278 40.9731 36.4011 42.4114V43.5836L36.2879 43.8184L36.1171 43.9924L36.0037 44.0516L34.9756 44.2272L33.9524 44.4045L33.8934 44.9299C37.1658 44.5359 39.4278 43.605 41.8717 41.2981L43.6931 43.2322C37.7436 49.0608 28.3542 49.1462 22.4446 43.2322L24.266 41.3557C26.7642 43.5738 28.7963 44.5195 32.0719 44.9299V44.3455C29.3918 44.1698 26.5614 42.9137 24.6651 40.9467L25.1217 40.4773L25.8049 40.5364L26.1481 40.1259L27.1154 40.185L27.2288 39.832V39.7171C28.6319 40.7613 30.2745 41.5132 32.0145 41.6494V41.1225C30.1005 40.8893 28.2759 40.0241 26.8313 38.7188L28.7086 36.7848L29.3934 37.3725L30.1915 37.8405L30.3049 37.5482L30.3623 37.3151L29.6791 36.9046L29.0518 36.4351L30.9323 34.5009L31.3887 34.8523L31.8995 35.087V34.5009L31.5595 34.3253L31.2739 34.1496L31.7863 33.6226L31.2739 33.4453L30.9323 33.7967L30.6465 33.4453L30.4757 33.094L30.0207 32.8608L29.5657 32.626L29.1666 32.273L28.825 31.9808L28.4818 31.6294L28.2536 31.2206C27.6581 29.9301 27.6613 28.0583 28.5968 26.9419L26.7163 25.0095C28.3493 23.5942 29.5115 22.8587 31.6729 22.5484V21.9623C29.6471 22.3382 27.8449 23.1411 26.3747 24.6565L26.0905 24.3052L25.8049 24.8322L26.0331 25.0095C24.4272 26.7958 23.3832 29.1715 23.412 31.6294H20.7908C20.7701 28.4902 22.0998 25.4199 24.1527 23.1345L25.0067 23.9538H25.3483L25.5765 23.8372L24.5517 22.724L25.4057 21.9623L26.3747 21.2579L26.4897 20.8474L26.8872 20.3203L26.1481 20.7325L25.4633 21.2579L24.7785 21.7866L24.1527 22.3711L22.3296 20.4977C24.7417 17.9249 28.0908 16.4802 31.5021 16.0434L31.4447 15.9268L31.3887 15.5164C11.1267 18.8313 13.2946 47.4059 33.0394 48.1528ZM25.5765 24.5991L25.6341 24.3052H25.3483L25.5765 24.5991ZM34.634 34.7357L34.5782 34.6767L34.4632 34.5601L34.179 34.3843H34.1232V35.2628L34.3514 35.1461L34.4632 35.028L34.5782 34.9114L34.634 34.7357ZM36.1171 17.5095L36.2879 17.3322L35.9462 17.2158H35.2055L34.9756 17.3322L34.5206 17.2748V17.3914L35.3189 17.5095L35.7164 17.4505L36.1171 17.5095ZM36.6853 22.6074L36.1171 22.4301L35.5471 22.2545L34.9756 22.0788L34.4074 21.9623L34.3514 22.5484L34.9198 22.6074L35.4881 22.7831L36.5145 23.1345L36.6295 22.8998L36.6853 22.6074ZM46.5984 20.263C47.7015 24.3101 51.0297 23.7897 52.6948 27.881C52.864 24.3856 53.4834 21.2693 50.3019 18.8575C51.63 20.5387 51.1911 23.3873 51.954 25.3592C50.6706 22.307 47.9713 22.0346 46.5984 20.263ZM18.6263 19.7933C19.5584 18.5274 19.8809 17.1943 21.1899 16.16C18.2527 16.7379 15.8806 19.603 15.3234 22.5484C16.2669 21.4778 17.6109 20.9541 18.6263 19.7933ZM50.1295 29.1683C49.8756 33.0217 52.2605 34.3827 52.1248 37.8405C54.2128 34.0642 56.577 34.4139 55.4867 28.349C55.2872 31.0942 53.014 33.0807 52.5814 35.7898C52.6675 32.0923 51.9349 31.984 50.1295 29.1683ZM55.9991 33.8557C55.0781 36.371 52.3068 37.9078 50.9276 40.8286C51.7769 36.9801 50.8286 36.8981 50.3019 33.5635C48.9562 37.1033 50.7265 39.1326 49.7304 42.9384C53.0268 39.878 55.7181 39.6745 55.9991 33.8557ZM53.0364 30.5754C52.2015 27.1011 50.835 26.6431 48.7071 24.4218C49.748 28.4163 52.4281 29.5639 53.0364 32.6852C54.4747 28.7167 56.2833 27.0733 53.378 22.724C54.3405 25.2804 52.8799 27.9977 53.0364 30.5754ZM17.3172 24.4218C15.2053 26.7663 13.8851 27.0092 12.9865 30.5754C13.1061 27.9632 11.778 25.3035 12.6449 22.724C11.4492 24.448 10.9368 26.1916 11.2784 28.29C11.5833 29.8595 12.8875 31.4373 12.9865 32.6852C13.6729 29.541 16.4983 28.1585 17.3172 24.4218ZM15.8918 29.1683C14.0192 32.1811 13.4606 32.0153 13.4429 35.7898C13.1238 33.0644 10.6478 31.0926 10.5936 28.349C9.449 34.3072 11.7301 33.9822 13.9554 37.8405C13.783 34.2448 16.2302 32.9232 15.8918 29.1683ZM41.6419 50.0295C39.7199 49.4876 37.9895 49.2743 36.0037 49.3268C30.7709 50.2216 35.3269 50.2479 30.0207 49.3268C25.939 48.8457 21.1324 51.9487 17.943 50.2625C22.9554 54.3803 27.0483 50.9079 31.8437 50.5549C30.4932 51.2444 28.8538 52.5038 27.912 53.7204L29.0518 53.837C31.7384 49.8325 34.2988 49.7964 36.9695 53.837L38.1092 53.7204C37.458 52.5711 35.3524 51.2165 34.2366 50.5549C39.0591 50.9423 43.0801 54.3541 48.1373 50.2625C46.2919 51.2789 43.5191 50.5499 41.6419 50.0295ZM48.1931 44.8725C49.7831 42.5264 48.8795 40.9205 49.1621 38.3675C46.7995 41.6692 47.8834 44.1895 46.1994 46.8066C50.6419 44.7854 53.0045 45.9988 54.9743 39.4232C53.4019 42.4853 50.3465 42.6379 48.1931 44.8725ZM43.9214 48.5058C46.375 45.9839 45.5927 45.2796 46.6558 42.6462C43.227 45.9051 44.0044 46.0151 42.0409 49.7355C43.6452 49.1905 46.0365 50.0821 48.0223 49.2069C49.9124 48.6503 51.3171 47.0923 52.1808 45.3403C50.0529 47.7357 46.4467 46.8279 43.9214 48.5058ZM23.9819 49.7355C22.1173 46.1072 22.6489 45.7393 19.4243 42.6462C20.4349 45.3667 19.6894 46.03 22.1588 48.5058C19.7565 46.9379 15.5229 47.5405 13.8979 45.3403C14.6961 47.1169 16.2045 48.6585 18.0579 49.2069C20.023 50.0821 22.4318 49.1872 23.9819 49.7355ZM16.3482 42.9384C15.2819 39.282 17.1687 37.2018 15.721 33.5635C15.2037 36.7191 14.3433 37.3201 15.0952 40.8286C13.914 38.0096 11.0629 36.4169 10.0253 33.8557C10.4132 39.6842 12.8683 39.8057 16.3482 42.9384ZM16.8622 38.3675C17.3092 40.891 16.1535 42.1307 17.8297 44.8725C16.0385 42.8168 12.3575 42.2931 11.106 39.4232C11.5593 41.6298 12.7438 43.7954 14.6961 44.9299C16.2589 45.8954 18.5368 45.8527 19.8235 46.8066C18.085 44.0417 19.3047 41.5954 16.8622 38.3675ZM13.3297 27.881C15.0729 23.7864 18.2718 24.3725 19.4243 20.263L19.3111 20.4977L19.0827 20.7325L18.5129 21.1413L17.089 22.0788L16.2334 22.665C15.2819 23.3316 14.6067 24.3314 14.0703 25.3592C14.8461 23.6205 14.3929 20.6226 15.721 18.8575C14.2331 20.0018 13.5148 21.3761 13.2721 23.2511C12.996 24.7927 13.4286 26.4823 13.3297 27.881ZM47.454 19.7933C48.5028 20.9492 49.6873 21.5156 50.7568 22.5484C50.0641 19.539 47.8946 16.8134 44.8888 16.16C46.1339 17.0663 46.4818 18.7359 47.454 19.7933Z" fill="#2484C6"/>
<path d="M34.0082 41.0633C34.8543 41.4869 35.6652 42.1963 35.8886 43.1731C36.0403 41.7892 35.2359 40.5216 34.0082 40.0093V41.0633Z" fill="#2484C6"/>
<path d="M39.4198 22.2543C39.3337 19.4829 36.8513 18.1497 34.4633 17.9773V18.7966L34.4074 19.7932C36.0228 19.9114 37.608 20.977 37.1993 22.8405C36.9854 23.7746 36.2608 24.1555 35.4881 24.538C34.0036 25.0995 32.5045 25.3409 31.0471 25.8302C27.1011 27.3144 27.5177 32.12 31.8996 33.0362L31.8437 31.1021C29.8659 30.1384 30.2091 28.0844 32.2986 27.5869C35.1736 26.5822 39.5077 26.4639 39.4198 22.2543Z" fill="#2484C6"/>
<path d="M30.7039 38.3098V38.6611L30.8189 38.9534L30.9323 39.1881L31.1031 39.423L31.5021 39.8318L32.0145 40.1257L31.9587 38.4854L32.0145 38.3098L32.1279 38.1917L32.2987 38.075L32.4711 37.9569L32.9819 37.7237C33.8296 37.4002 35.8026 36.975 36.3437 36.2C37.9065 34.3875 36.2064 32.4321 34.1792 31.9231L34.1232 33.739C35.3221 34.1674 35.5376 35.0344 34.4632 35.7305C33.3666 36.2264 30.6784 36.6385 30.7039 38.3098Z" fill="#2484C6"/>
<path d="M28.2536 21.317L27.8546 21.376L28.311 20.5568L28.8825 20.6143L28.2536 21.317ZM31.5596 18.2122C29.1157 19.4338 28.2919 18.7803 26.8872 21.376L26.7738 21.7273L26.7164 22.0787L26.603 22.371L26.4322 22.6649L26.3748 22.8997V23.0753C26.2662 23.6762 25.6101 24.2607 25.0067 24.0704L25.1217 24.1294L25.2925 24.1885L25.5766 24.1294L25.9182 24.0128L25.8623 24.2477L25.6915 24.7731C26.8633 22.6024 26.2327 23.8799 27.912 22.9587C30.1835 21.8211 30.1484 20.8343 31.6155 20.1463L31.5596 18.2122Z" fill="#2484C6"/>
<path d="M33.2118 38.1918L32.8128 38.3674L32.6404 38.4265L32.527 38.5448L32.6404 45.8099L32.6978 46.2778L32.7552 46.6293L32.8686 46.864L32.982 46.923L33.1544 46.864L33.2676 46.6293L33.3252 46.2778L33.3826 45.8099L33.496 38.0752L33.2118 38.1918Z" fill="#2484C6"/>
<path d="M32.471 35.8488L33.1542 35.614L33.5534 35.4957L33.7242 27.7053L32.9819 27.9401L32.2986 28.1716L32.471 35.8488Z" fill="#2484C6"/>
<path d="M33.0952 12.1177C32.3993 12.185 31.9347 12.4018 31.8437 13.1734L31.7863 13.4656L31.7288 13.8169L31.7863 14.5196L31.8437 15.224L32.072 16.2781L32.2412 24.8911L33.1544 24.6564L33.78 24.4808L33.9524 16.2781L34.1792 15.1633L34.2924 14.4622L34.3516 13.8169V13.4656L34.2924 13.1734C34.2015 12.4181 33.7784 12.2096 33.0952 12.1177Z" fill="#2484C6"/>
</g>
<defs>
<clipPath id="clip0_667_9753">
<rect width="45.9739" height="41.9" fill="white" transform="translate(10 12)"/>
</clipPath>
</defs>
</svg>
