<svg width="58" height="58" viewBox="0 0 58 58" fill="none" xmlns="http://www.w3.org/2000/svg">
<circle cx="29" cy="29" r="29" fill="#EFF2FC"/>
<path d="M17.4335 15H20.3005C20.7067 15 21.0474 15.1376 21.3226 15.4129C21.5978 15.6881 21.735 16.0283 21.734 16.4335V43.67C20.9456 43.67 20.2704 43.389 19.7085 42.8271C19.1465 42.2652 18.866 41.5905 18.867 40.803V17.867H17.4335C17.0273 17.867 16.6867 17.7294 16.4114 17.4542C16.1362 17.1789 15.999 16.8387 16 16.4335C16 16.0273 16.1376 15.6867 16.4129 15.4114C16.6881 15.1362 17.0283 14.999 17.4335 15ZM26.0345 43.67C25.2461 43.67 24.5709 43.389 24.009 42.8271C23.447 42.2652 23.1665 41.5905 23.1675 40.803V17.867C23.1675 17.0786 23.4485 16.4034 24.0104 15.8415C24.5723 15.2795 25.247 14.999 26.0345 15H38.936C39.7244 15 40.3996 15.281 40.9615 15.8429C41.5235 16.4048 41.804 17.0795 41.803 17.867V40.803C41.803 41.5914 41.522 42.2666 40.9601 42.8285C40.3982 43.3905 39.7235 43.671 38.936 43.67H26.0345ZM26.0345 27.2206C26.4646 26.9578 26.9185 26.7666 27.3963 26.6472C27.8742 26.5277 28.3759 26.468 28.9015 26.468H36.069C36.5946 26.468 37.0963 26.5277 37.5742 26.6472C38.052 26.7666 38.5059 26.9578 38.936 27.2206V17.867H26.0345V27.2206ZM32.4853 25.0345C31.6968 25.0345 31.0216 24.7535 30.4597 24.1916C29.8978 23.6297 29.6173 22.955 29.6183 22.1675C29.6183 21.3791 29.8992 20.7039 30.4612 20.142C31.0231 19.58 31.6978 19.2995 32.4853 19.3005C33.2737 19.3005 33.9489 19.5815 34.5108 20.1434C35.0727 20.7053 35.3532 21.38 35.3522 22.1675C35.3522 22.9559 35.0713 23.6311 34.5094 24.193C33.9474 24.755 33.2727 25.0355 32.4853 25.0345ZM26.0345 40.803H38.936V32.202C38.936 31.4136 38.655 30.7384 38.0931 30.1765C37.5312 29.6145 36.8565 29.334 36.069 29.335H28.9015C28.1131 29.335 27.4379 29.616 26.876 30.1779C26.314 30.7398 26.0335 31.4145 26.0345 32.202V40.803ZM31.0518 36.5025V37.936C31.0518 38.3422 31.1894 38.6829 31.4646 38.9581C31.7398 39.2333 32.08 39.3705 32.4853 39.3695C32.8914 39.3695 33.2321 39.2319 33.5073 38.9566C33.7826 38.6814 33.9197 38.3412 33.9188 37.936V36.5025H35.3522C35.7584 36.5025 36.0991 36.3649 36.3743 36.0897C36.6496 35.8144 36.7867 35.4742 36.7857 35.069C36.7857 34.6628 36.6481 34.3221 36.3729 34.0469C36.0977 33.7717 35.7575 33.6345 35.3522 33.6355H33.9188V32.202C33.9188 31.7958 33.7811 31.4551 33.5059 31.1799C33.2307 30.9047 32.8905 30.7675 32.4853 30.7685C32.0791 30.7685 31.7384 30.9061 31.4632 31.1813C31.1879 31.4566 31.0508 31.7968 31.0518 32.202V33.6355H29.6183C29.2121 33.6355 28.8714 33.7731 28.5962 34.0483C28.3209 34.3236 28.1838 34.6638 28.1848 35.069C28.1848 35.4752 28.3224 35.8159 28.5976 36.0911C28.8728 36.3663 29.213 36.5035 29.6183 36.5025H31.0518Z" fill="#265CC0"/>
</svg>
