<svg width="178" height="113" viewBox="0 0 178 113" fill="none" xmlns="http://www.w3.org/2000/svg">
<path d="M83.645 0.794739C83.4146 1.25374 77.9912 23.9193 71.5544 51.1353C64.6586 80.3745 59.7392 100.328 59.5556 99.8667C59.372 99.4527 56.5208 82.9485 53.2106 63.2259C47.2346 27.6417 46.9124 26.2179 45.35 26.2179C44.5688 26.2179 43.4654 27.9657 37.0754 38.9979L30.455 50.5827L16.019 50.6745C2.86996 50.8131 1.53796 50.9049 1.07717 51.5943C0.708165 52.1919 0.708165 52.6509 1.07717 53.2035C1.53616 53.9847 2.86996 54.0315 16.8002 54.1683C29.1212 54.2601 32.1092 54.1683 32.615 53.6625C32.9372 53.2953 35.6948 48.7431 38.6828 43.5015C41.7176 38.2599 44.2916 34.1685 44.4752 34.3539C44.6588 34.5375 47.6468 51.6861 51.0956 72.4203C54.5894 93.1545 57.5774 110.579 57.8078 111.129C58.2668 112.233 60.245 112.6 60.7958 111.774C60.9344 111.498 66.3128 89.0163 72.7496 61.7535C79.2314 34.4907 84.6566 11.8269 84.8402 11.3661C85.0238 10.8603 87.3692 20.9745 90.908 37.4787C96.7922 65.2455 96.9308 65.7531 98.8622 65.0169C99.2294 64.8801 103.184 57.2481 107.689 48.0537C112.195 38.8125 116.011 31.4109 116.149 31.5495C116.288 31.6881 119.413 41.8473 123.092 54.1233C127.689 69.4791 130.035 76.6503 130.585 76.9725C132.195 77.9841 132.884 76.7421 135.458 68.2371C136.837 63.7317 137.987 59.9157 138.079 59.8707C138.126 59.7789 139.413 60.5601 140.93 61.6185C142.815 62.9523 143.918 63.4581 144.516 63.2745C145.021 63.0909 147.136 60.4701 149.296 57.4821L153.202 52.0083L164.742 51.9633C174.259 51.9633 176.421 51.8247 176.88 51.2739C177.616 50.4009 177.018 48.7917 175.823 48.5163C175.27 48.3777 169.525 48.3327 163.088 48.3777L151.365 48.5163L147.779 53.3439C145.803 56.0097 144.01 58.3551 143.824 58.5387C143.594 58.7691 142.032 57.9879 140.376 56.8377C136.237 54.0333 135.962 54.2169 133.939 60.8373C133.066 63.6417 132.193 66.5379 132.009 67.2273C131.871 67.9635 131.595 68.5143 131.412 68.5143C131.273 68.5143 128.377 59.1363 124.975 47.6883C121.62 36.2871 118.538 26.2179 118.218 25.3917C117.712 24.1965 117.345 23.8743 116.562 24.0129C115.689 24.1047 114.171 26.8623 107.137 40.9311C102.54 50.1687 98.7704 57.4803 98.7704 57.2499C98.6786 56.0997 86.7716 0.839737 86.5412 0.425735C86.0804 -0.308662 84.0572 -0.0332642 83.645 0.794739Z" fill="#04B978"/>
</svg>
