<svg width="16" height="16" viewBox="0 0 16 16" fill="none" xmlns="http://www.w3.org/2000/svg">
<path d="M10.5 5H8.5V3H7.5V5H5.5V6H7.5V8H8.5V6H10.5V5Z" fill="#727272"/>
<path d="M14 5H13V2C12.9997 1.73486 12.8943 1.48066 12.7068 1.29319C12.5193 1.10571 12.2651 1.00026 12 1H4C3.73486 1.00026 3.48066 1.10571 3.29319 1.29319C3.10571 1.48066 3.00026 1.73486 3 2V5H2C1.73486 5.00026 1.48066 5.10571 1.29319 5.29319C1.10571 5.48066 1.00026 5.73486 1 6V15H15V6C14.9997 5.73486 14.8943 5.48066 14.7068 5.29319C14.5193 5.10571 14.2651 5.00026 14 5ZM7 14V11H9V14H7ZM10 14V10.5C10 10.3674 9.94732 10.2402 9.85355 10.1464C9.75979 10.0527 9.63261 10 9.5 10H6.5C6.36739 10 6.24021 10.0527 6.14645 10.1464C6.05268 10.2402 6 10.3674 6 10.5V14H2V6H4V2H12V6H14V14H10Z" fill="#727272"/>
</svg>
