<svg width="40" height="40" viewBox="0 0 40 40" fill="none" xmlns="http://www.w3.org/2000/svg">
<rect width="40" height="40" rx="6" fill="#FEF3F1"/>
<path d="M10.3334 14.6666L12.6084 17.6999C12.9111 18.1036 13.3036 18.4312 13.7549 18.6568C14.2062 18.8824 14.7038 18.9999 15.2084 18.9999H27.6667M16.8334 12.4999H21.1667M19 10.3333V14.6666M21.1667 25.4999C21.1667 26.0746 21.395 26.6257 21.8013 27.032C22.2076 27.4383 22.7587 27.6666 23.3334 27.6666C23.908 27.6666 24.4591 27.4383 24.8654 27.032C25.2718 26.6257 25.5 26.0746 25.5 25.4999C25.5 24.9253 25.2718 24.3742 24.8654 23.9679C24.4591 23.5615 23.908 23.3333 23.3334 23.3333C22.7587 23.3333 22.2076 23.5615 21.8013 23.9679C21.395 24.3742 21.1667 24.9253 21.1667 25.4999ZM12.5 25.4999C12.5 26.0746 12.7283 26.6257 13.1346 27.032C13.541 27.4383 14.0921 27.6666 14.6667 27.6666C15.2413 27.6666 15.7924 27.4383 16.1988 27.032C16.6051 26.6257 16.8334 26.0746 16.8334 25.4999C16.8334 24.9253 16.6051 24.3742 16.1988 23.9679C15.7924 23.5615 15.2413 23.3333 14.6667 23.3333C14.0921 23.3333 13.541 23.5615 13.1346 23.9679C12.7283 24.3742 12.5 24.9253 12.5 25.4999Z" stroke="#E41D1D" stroke-width="2" stroke-linecap="round" stroke-linejoin="round"/>
<path d="M19.0001 19V21.1667M19.0001 21.1667L16.2917 23.875M19.0001 21.1667L21.7084 23.875" stroke="#E41D1D" stroke-width="2" stroke-linecap="round" stroke-linejoin="round"/>
</svg>
