<svg width="58" height="58" viewBox="0 0 58 58" fill="none" xmlns="http://www.w3.org/2000/svg">
<circle cx="29" cy="29" r="29" fill="#EFF2FC"/>
<path fill-rule="evenodd" clip-rule="evenodd" d="M39.1128 37.7499C35.7386 29.3234 31.8 27.1025 31.8 22.8999V17.9499H32.625C32.8438 17.9499 33.0537 17.863 33.2084 17.7083C33.3631 17.5535 33.45 17.3437 33.45 17.1249V15.4749C33.45 15.2561 33.3631 15.0463 33.2084 14.8915C33.0537 14.7368 32.8438 14.6499 32.625 14.6499H24.375C24.1562 14.6499 23.9464 14.7368 23.7917 14.8915C23.637 15.0463 23.55 15.2561 23.55 15.4749V17.1249C23.55 17.3437 23.637 17.5535 23.7917 17.7083C23.9464 17.863 24.1562 17.9499 24.375 17.9499H25.2V22.8999C25.2 27.1025 21.2615 29.3234 17.8872 37.7499C16.8131 40.4312 14.0543 44.3499 28.5 44.3499C42.9458 44.3499 40.187 40.4312 39.1128 37.7499ZM36.4448 40.6391C35.2865 40.9856 32.9814 41.3799 28.5 41.3799C24.0186 41.3799 21.7136 40.9856 20.5553 40.6391C20.1444 40.517 19.9844 40.0401 20.1296 39.6028C20.4926 38.4974 21.1773 36.5867 22.4577 34.4532C25.5861 29.2409 28.8317 35.2733 31.5327 35.2733C34.2338 35.2733 33.4929 32.6976 34.5423 34.4532C35.508 36.0775 36.2889 37.8048 36.8705 39.6028C37.0157 40.0401 36.8556 40.5153 36.4448 40.6391Z" fill="#265CC0"/>
</svg>
