<svg width="58" height="58" viewBox="0 0 58 58" fill="none" xmlns="http://www.w3.org/2000/svg">
<circle cx="29" cy="29" r="29" fill="#EFF2FC"/>
<path d="M26.5875 14.7144C24.8437 14.7437 23.2687 15.7837 22.5562 17.3919L31.0875 19.9687C31.4625 17.7319 30.1187 15.5631 27.9562 14.905C27.5687 14.7875 27.1625 14.7231 26.7562 14.7144H26.5875ZM22.2312 18.4694C21.85 20.7125 23.1937 22.8875 25.3625 23.5437C27.5375 24.2 29.8562 23.125 30.7687 21.0437L22.2312 18.4694ZM38.825 21.2375C37.2437 21.2437 35.5625 22.0062 34.2937 23.8L26.4937 34.8562C24.4 37.8187 25.3125 40.9187 27.375 42.3812C29.4437 43.85 32.6625 43.6812 34.7562 40.7187L42.55 29.6687C44.6437 26.7 43.7312 23.6062 41.6687 22.1375C40.8937 21.5875 39.9625 21.2687 38.9812 21.2375H38.825ZM38.7125 22.3187C38.7937 22.3187 38.875 22.3187 38.95 22.325C39.7062 22.3562 40.4187 22.625 41.0187 23.0562C42.625 24.1937 43.4312 26.4625 41.625 29.0187L37.5937 34.7375C35.3562 34.1375 32.4812 32.0937 31.175 30.175L35.2187 24.45C36.275 22.9562 37.5312 22.3437 38.7125 22.3187ZM18.7031 27.0812C18.1018 27.0875 17.5087 27.2125 16.9575 27.4562C14.8881 28.3625 13.8112 30.675 14.4425 32.85L22.6125 29.2812C21.7937 27.9 20.3062 27.0625 18.7031 27.0812ZM23.0562 30.3062L14.8875 33.8812C16.0406 35.8437 18.4687 36.6312 20.55 35.725C22.625 34.8125 23.7 32.4875 23.0562 30.3062Z" fill="#265CC0"/>
</svg>
