<svg width="58" height="58" viewBox="0 0 58 58" fill="none" xmlns="http://www.w3.org/2000/svg">
<circle cx="29" cy="29" r="29" fill="#EFF2FC"/>
<path d="M25.4584 22.625V24.75H23.3334V26.1667H25.4584V28.2917H26.875V26.1667H29V24.75H26.875V22.625H25.4584ZM24.0417 30.4167C23.8538 30.4167 23.6737 30.4913 23.5408 30.6241C23.408 30.757 23.3334 30.9371 23.3334 31.125C23.3334 31.3129 23.408 31.493 23.5408 31.6259C23.6737 31.7587 23.8538 31.8333 24.0417 31.8333H33.9584C34.1462 31.8333 34.3264 31.7587 34.4592 31.6259C34.5921 31.493 34.6667 31.3129 34.6667 31.125C34.6667 30.9371 34.5921 30.757 34.4592 30.6241C34.3264 30.4913 34.1462 30.4167 33.9584 30.4167H24.0417ZM23.3334 34.6667C23.3334 34.4788 23.408 34.2986 23.5408 34.1658C23.6737 34.033 23.8538 33.9583 24.0417 33.9583H33.9584C34.1462 33.9583 34.3264 34.033 34.4592 34.1658C34.5921 34.2986 34.6667 34.4788 34.6667 34.6667C34.6667 34.8545 34.5921 35.0347 34.4592 35.1675C34.3264 35.3004 34.1462 35.375 33.9584 35.375H24.0417C23.8538 35.375 23.6737 35.3004 23.5408 35.1675C23.408 35.0347 23.3334 34.8545 23.3334 34.6667ZM24.0417 37.5C23.8538 37.5 23.6737 37.5746 23.5408 37.7075C23.408 37.8403 23.3334 38.0205 23.3334 38.2083C23.3334 38.3962 23.408 38.5764 23.5408 38.7092C23.6737 38.842 23.8538 38.9167 24.0417 38.9167H33.9584C34.1462 38.9167 34.3264 38.842 34.4592 38.7092C34.5921 38.5764 34.6667 38.3962 34.6667 38.2083C34.6667 38.0205 34.5921 37.8403 34.4592 37.7075C34.3264 37.5746 34.1462 37.5 33.9584 37.5H24.0417Z" fill="#265CC0"/>
<path fill-rule="evenodd" clip-rule="evenodd" d="M24.0417 16.9583C24.0417 16.3947 24.2656 15.8542 24.6641 15.4557C25.0626 15.0571 25.6031 14.8333 26.1667 14.8333H31.8334C32.397 14.8333 32.9375 15.0571 33.336 15.4557C33.7345 15.8542 33.9584 16.3947 33.9584 16.9583H36.7917C37.3553 16.9583 37.8958 17.1821 38.2943 17.5807C38.6928 17.9792 38.9167 18.5197 38.9167 19.0833V41.0416C38.9167 41.6052 38.6928 42.1457 38.2943 42.5442C37.8958 42.9427 37.3553 43.1666 36.7917 43.1666H21.2084C20.6448 43.1666 20.1043 42.9427 19.7058 42.5442C19.3073 42.1457 19.0834 41.6052 19.0834 41.0416V19.0833C19.0834 18.5197 19.3073 17.9792 19.7058 17.5807C20.1043 17.1821 20.6448 16.9583 21.2084 16.9583H24.0417ZM31.8334 20.4999C32.397 20.4999 32.9375 20.276 33.336 19.8775C33.7345 19.479 33.9584 18.9385 33.9584 18.3749H36.7917C36.9796 18.3749 37.1597 18.4495 37.2926 18.5824C37.4254 18.7152 37.5 18.8954 37.5 19.0833V41.0416C37.5 41.2294 37.4254 41.4096 37.2926 41.5425C37.1597 41.6753 36.9796 41.7499 36.7917 41.7499H21.2084C21.0205 41.7499 20.8403 41.6753 20.7075 41.5425C20.5747 41.4096 20.5 41.2294 20.5 41.0416V19.0833C20.5 18.8954 20.5747 18.7152 20.7075 18.5824C20.8403 18.4495 21.0205 18.3749 21.2084 18.3749H24.0417C24.0417 18.9385 24.2656 19.479 24.6641 19.8775C25.0626 20.276 25.6031 20.4999 26.1667 20.4999H31.8334ZM26.1667 16.2499C25.9788 16.2499 25.7987 16.3245 25.6658 16.4574C25.533 16.5902 25.4584 16.7704 25.4584 16.9583V18.3749C25.4584 18.5628 25.533 18.7429 25.6658 18.8758C25.7987 19.0086 25.9788 19.0833 26.1667 19.0833H31.8334C32.0212 19.0833 32.2014 19.0086 32.3342 18.8758C32.4671 18.7429 32.5417 18.5628 32.5417 18.3749V16.9583C32.5417 16.7704 32.4671 16.5902 32.3342 16.4574C32.2014 16.3245 32.0212 16.2499 31.8334 16.2499H26.1667Z" fill="#265CC0"/>
</svg>
