<svg width="58" height="58" viewBox="0 0 58 58" fill="none" xmlns="http://www.w3.org/2000/svg">
<circle cx="29" cy="29" r="29" fill="#EFF2FC"/>
<path fill-rule="evenodd" clip-rule="evenodd" d="M27.1679 15.4335H28.6013V14H24.3008V15.4335H25.7344V16.867H24.179C24.0099 16.3886 23.6771 15.9853 23.2395 15.7285C22.8018 15.4718 22.2875 15.378 21.7874 15.4637C21.2872 15.5495 20.8335 15.8093 20.5065 16.1973C20.1794 16.5852 20 17.0763 20 17.5838C20 18.0912 20.1794 18.5823 20.5065 18.9702C20.8335 19.3582 21.2872 19.618 21.7874 19.7038C22.2875 19.7895 22.8018 19.6957 23.2395 19.439C23.6771 19.1822 24.0099 18.7789 24.179 18.3005H25.7344V19.7935C24.7323 19.9632 23.8226 20.4821 23.1667 21.2584C22.5107 22.0347 22.1507 23.0182 22.1506 24.0345V41.9533C22.1506 42.1433 22.2261 42.3257 22.3605 42.4601C22.4949 42.5945 22.6773 42.67 22.8673 42.67H30.0349C30.2249 42.67 30.4073 42.5945 30.5417 42.4601C30.6761 42.3257 30.7516 42.1433 30.7516 41.9533V24.0345C30.7515 23.0182 30.3915 22.0347 29.7355 21.2584C29.0796 20.4821 28.1699 19.9632 27.1679 19.7935V18.3005H30.7516V16.867H27.1679V15.4335ZM26.4511 21.1675C25.6907 21.1675 24.9615 21.4696 24.4238 22.0072C23.8862 22.5449 23.5841 23.2741 23.5841 24.0345V25.468H29.3181V24.0345C29.3181 23.2741 29.016 22.5449 28.4784 22.0072C27.9407 21.4696 27.2115 21.1675 26.4511 21.1675ZM23.5841 41.2365V26.9015H29.3181V41.2365H23.5841ZM21.4338 17.5838C21.4338 17.3937 21.5094 17.2113 21.6438 17.0769C21.7782 16.9425 21.9605 16.867 22.1506 16.867C22.3407 16.867 22.523 16.9425 22.6574 17.0769C22.7918 17.2113 22.8673 17.3937 22.8673 17.5838C22.8673 17.7738 22.7918 17.9562 22.6574 18.0906C22.523 18.225 22.3407 18.3005 22.1506 18.3005C21.9605 18.3005 21.7782 18.225 21.6438 18.0906C21.5094 17.9562 21.4338 17.7738 21.4338 17.5838ZM33.6186 26.1848C33.6186 25.4244 33.9207 24.6951 34.4583 24.1575C34.996 23.6198 35.7252 23.3177 36.4856 23.3177C37.246 23.3177 37.9752 23.6198 38.5129 24.1575C39.0505 24.6951 39.3526 25.4244 39.3526 26.1848V30.4853C39.3526 31.2456 39.0505 31.9749 38.5129 32.5125C37.9752 33.0502 37.246 33.3523 36.4856 33.3523C35.7252 33.3523 34.996 33.0502 34.4583 32.5125C33.9207 31.9749 33.6186 31.2456 33.6186 30.4853V26.1848ZM36.4856 24.7513C36.1054 24.7513 35.7408 24.9023 35.472 25.1711C35.2031 25.4399 35.0521 25.8046 35.0521 26.1848V30.4853C35.0521 30.8654 35.2031 31.2301 35.472 31.4989C35.7408 31.7677 36.1054 31.9188 36.4856 31.9188C36.8658 31.9188 37.2304 31.7677 37.4992 31.4989C37.7681 31.2301 37.9191 30.8654 37.9191 30.4853V26.1848C37.9191 25.8046 37.7681 25.4399 37.4992 25.1711C37.2304 24.9023 36.8658 24.7513 36.4856 24.7513ZM42.2196 29.7685H40.0694V28.335H42.2196C42.7899 28.335 43.3368 28.5615 43.7401 28.9648C44.1433 29.368 44.3699 29.915 44.3699 30.4853C44.3699 31.0555 44.1433 31.6025 43.7401 32.0057C43.3368 32.409 42.7899 32.6355 42.2196 32.6355C42.0295 32.6355 41.8472 32.711 41.7128 32.8454C41.5784 32.9798 41.5029 33.1622 41.5029 33.3523V34.069H44.3699V35.5025H40.7861C40.596 35.5025 40.4137 35.427 40.2793 35.2926C40.1449 35.1582 40.0694 34.9758 40.0694 34.7858V33.3523C40.0694 32.782 40.2959 32.235 40.6991 31.8318C41.1024 31.4285 41.6493 31.202 42.2196 31.202C42.4097 31.202 42.592 31.1265 42.7264 30.9921C42.8608 30.8577 42.9363 30.6753 42.9363 30.4853C42.9363 30.2952 42.8608 30.1128 42.7264 29.9784C42.592 29.844 42.4097 29.7685 42.2196 29.7685Z" fill="#265CC0"/>
</svg>
