<svg width="85" height="30" viewBox="0 0 85 30" fill="none" xmlns="http://www.w3.org/2000/svg">
<rect width="85" height="30" rx="12" fill="#22C55E"/>
<path d="M14.0387 20V10.5455H17.4087C18.1443 10.5455 18.7537 10.6793 19.2369 10.9471C19.7201 11.2148 20.0817 11.5811 20.3217 12.0458C20.5618 12.5075 20.6818 13.0276 20.6818 13.6062C20.6818 14.1879 20.5603 14.7111 20.3171 15.1758C20.0771 15.6374 19.7139 16.0037 19.2276 16.2745C18.7444 16.5423 18.1366 16.6761 17.4041 16.6761H15.0866V15.4666H17.2749C17.7396 15.4666 18.1166 15.3866 18.4059 15.2266C18.6952 15.0634 18.9076 14.8419 19.043 14.5618C19.1784 14.2817 19.2461 13.9632 19.2461 13.6062C19.2461 13.2492 19.1784 12.9322 19.043 12.6552C18.9076 12.3782 18.6937 12.1612 18.4013 12.0043C18.112 11.8473 17.7304 11.7688 17.2564 11.7688H15.4652V20H14.0387ZM24.2434 20.157C23.7941 20.157 23.3878 20.0739 23.0247 19.9077C22.6615 19.7384 22.3738 19.4937 22.1614 19.1737C21.9521 18.8536 21.8475 18.4612 21.8475 17.9964C21.8475 17.5964 21.9244 17.267 22.0783 17.0085C22.2322 16.75 22.4399 16.5453 22.7015 16.3945C22.9631 16.2437 23.2555 16.1299 23.5787 16.0529C23.9018 15.976 24.2311 15.9175 24.5666 15.8775C24.9913 15.8282 25.336 15.7882 25.6007 15.7575C25.8654 15.7236 26.0577 15.6697 26.1777 15.5959C26.2978 15.522 26.3578 15.402 26.3578 15.2358V15.2035C26.3578 14.8003 26.2439 14.4879 26.0162 14.2663C25.7915 14.0447 25.456 13.9339 25.0098 13.9339C24.545 13.9339 24.1788 14.037 23.911 14.2433C23.6464 14.4464 23.4632 14.6726 23.3617 14.9219L22.0645 14.6264C22.2183 14.1955 22.443 13.8478 22.7385 13.5831C23.037 13.3153 23.3801 13.1214 23.7679 13.0014C24.1557 12.8783 24.5635 12.8168 24.9913 12.8168C25.2744 12.8168 25.5745 12.8506 25.8915 12.9183C26.2116 12.983 26.5101 13.103 26.7871 13.2784C27.0672 13.4538 27.2965 13.7047 27.475 14.0309C27.6535 14.354 27.7427 14.7741 27.7427 15.2912V20H26.3947V19.0305H26.3393C26.2501 19.209 26.1162 19.3845 25.9377 19.5568C25.7592 19.7292 25.5299 19.8723 25.2498 19.9862C24.9698 20.1 24.6343 20.157 24.2434 20.157ZM24.5435 19.049C24.9251 19.049 25.2514 18.9736 25.5222 18.8228C25.7961 18.672 26.0038 18.475 26.1454 18.2319C26.2901 17.9857 26.3624 17.7225 26.3624 17.4425V16.5284C26.3132 16.5777 26.2177 16.6238 26.0762 16.6669C25.9377 16.7069 25.7792 16.7423 25.6007 16.7731C25.4222 16.8008 25.2483 16.8269 25.079 16.8516C24.9097 16.8731 24.7682 16.8916 24.6543 16.907C24.3865 16.9408 24.1419 16.9978 23.9203 17.0778C23.7018 17.1578 23.5263 17.2732 23.394 17.424C23.2647 17.5717 23.2001 17.7687 23.2001 18.0149C23.2001 18.3565 23.3263 18.6151 23.5787 18.7905C23.831 18.9628 24.1526 19.049 24.5435 19.049ZM29.5812 20V12.9091H30.9154V14.0355H30.9893C31.1185 13.6539 31.3463 13.3538 31.6725 13.1353C32.0018 12.9137 32.3742 12.8029 32.7897 12.8029C32.8759 12.8029 32.9774 12.806 33.0944 12.8121C33.2144 12.8183 33.3083 12.826 33.376 12.8352V14.1555C33.3206 14.1402 33.2221 14.1232 33.0805 14.1048C32.939 14.0832 32.7974 14.0724 32.6558 14.0724C32.3296 14.0724 32.0387 14.1417 31.7833 14.2802C31.5309 14.4156 31.3309 14.6049 31.1831 14.848C31.0354 15.0881 30.9616 15.362 30.9616 15.6697V20H29.5812ZM38.2994 12.9091V14.017H34.4262V12.9091H38.2994ZM35.4649 11.2102H36.8453V17.918C36.8453 18.1857 36.8853 18.3873 36.9653 18.5227C37.0453 18.6551 37.1484 18.7459 37.2746 18.7951C37.4039 18.8413 37.5439 18.8643 37.6947 18.8643C37.8055 18.8643 37.9024 18.8567 37.9855 18.8413C38.0686 18.8259 38.1333 18.8136 38.1794 18.8043L38.4287 19.9446C38.3487 19.9754 38.2348 20.0062 38.0871 20.0369C37.9394 20.0708 37.7547 20.0893 37.5331 20.0923C37.17 20.0985 36.8314 20.0339 36.5175 19.8984C36.2036 19.763 35.9497 19.5537 35.7558 19.2706C35.5619 18.9875 35.4649 18.632 35.4649 18.2042V11.2102ZM43.7631 15.4066V16.6023H39.5713V15.4066H43.7631ZM48.9127 12.9091V14.017H45.0395V12.9091H48.9127ZM46.0782 11.2102H47.4585V17.918C47.4585 18.1857 47.4986 18.3873 47.5786 18.5227C47.6586 18.6551 47.7617 18.7459 47.8879 18.7951C48.0171 18.8413 48.1572 18.8643 48.308 18.8643C48.4188 18.8643 48.5157 18.8567 48.5988 18.8413C48.6819 18.8259 48.7465 18.8136 48.7927 18.8043L49.042 19.9446C48.962 19.9754 48.8481 20.0062 48.7004 20.0369C48.5526 20.0708 48.368 20.0893 48.1464 20.0923C47.7832 20.0985 47.4447 20.0339 47.1308 19.8984C46.8169 19.763 46.5629 19.5537 46.3691 19.2706C46.1752 18.9875 46.0782 18.632 46.0782 18.2042V11.2102ZM50.4396 20V12.9091H51.82V20H50.4396ZM51.1367 11.815C50.8967 11.815 50.6905 11.735 50.5181 11.5749C50.3488 11.4118 50.2642 11.2179 50.2642 10.9933C50.2642 10.7655 50.3488 10.5716 50.5181 10.4116C50.6905 10.2485 50.8967 10.1669 51.1367 10.1669C51.3768 10.1669 51.5814 10.2485 51.7507 10.4116C51.9231 10.5716 52.0092 10.7655 52.0092 10.9933C52.0092 11.2179 51.9231 11.4118 51.7507 11.5749C51.5814 11.735 51.3768 11.815 51.1367 11.815ZM53.6769 20V12.9091H55.0019V14.0632H55.0896C55.2373 13.6723 55.4789 13.3677 55.8144 13.1491C56.1498 12.9276 56.5515 12.8168 57.0193 12.8168C57.4932 12.8168 57.8902 12.9276 58.2103 13.1491C58.5335 13.3707 58.772 13.6754 58.9259 14.0632H58.9997C59.169 13.6847 59.4383 13.383 59.8076 13.1584C60.1769 12.9306 60.617 12.8168 61.1279 12.8168C61.7712 12.8168 62.2959 13.0183 62.7021 13.4215C63.1115 13.8247 63.3161 14.4325 63.3161 15.245V20H61.9358V15.3743C61.9358 14.8942 61.805 14.5464 61.5434 14.331C61.2818 14.1155 60.9694 14.0078 60.6063 14.0078C60.1569 14.0078 59.8076 14.1463 59.5583 14.4233C59.309 14.6972 59.1844 15.0496 59.1844 15.4805V20H57.8087V15.2866C57.8087 14.9019 57.6887 14.5926 57.4486 14.3587C57.2085 14.1248 56.8962 14.0078 56.5115 14.0078C56.2499 14.0078 56.0083 14.0771 55.7867 14.2156C55.5682 14.351 55.3912 14.5402 55.2558 14.7834C55.1234 15.0265 55.0573 15.3081 55.0573 15.6282V20H53.6769ZM68.2223 20.1431C67.5237 20.1431 66.922 19.9938 66.4173 19.6953C65.9156 19.3937 65.5278 18.9705 65.2539 18.4258C64.9831 17.878 64.8477 17.2363 64.8477 16.5007C64.8477 15.7744 64.9831 15.1342 65.2539 14.5803C65.5278 14.0263 65.9094 13.5939 66.3988 13.283C66.8912 12.9722 67.4667 12.8168 68.1254 12.8168C68.5254 12.8168 68.9132 12.8829 69.2887 13.0153C69.6642 13.1476 70.0012 13.3554 70.2997 13.6385C70.5982 13.9216 70.8337 14.2894 71.006 14.7418C71.1784 15.1912 71.2646 15.7375 71.2646 16.3807V16.87H65.6278V15.8359H69.9119C69.9119 15.4728 69.8381 15.1512 69.6903 14.8711C69.5426 14.5879 69.3349 14.3648 69.0671 14.2017C68.8024 14.0386 68.4916 13.957 68.1346 13.957C67.7468 13.957 67.4083 14.0524 67.119 14.2433C66.8327 14.431 66.6112 14.6772 66.4542 14.9819C66.3003 15.2835 66.2234 15.6113 66.2234 15.9652V16.7731C66.2234 17.247 66.3065 17.6502 66.4727 17.9826C66.6419 18.315 66.8774 18.5689 67.179 18.7443C67.4806 18.9167 67.833 19.0028 68.2362 19.0028C68.4978 19.0028 68.7363 18.9659 68.9517 18.892C69.1671 18.8151 69.3533 18.7012 69.5103 18.5504C69.6673 18.3996 69.7873 18.2134 69.8704 17.9918L71.1768 18.2273C71.0722 18.612 70.8845 18.949 70.6136 19.2383C70.3459 19.5245 70.0089 19.7476 69.6026 19.9077C69.1995 20.0646 68.7393 20.1431 68.2223 20.1431Z" fill="white"/>
</svg>
