<svg width="25" height="25" viewBox="0 0 25 25" fill="none" xmlns="http://www.w3.org/2000/svg">
<path d="M14.0679 16.1191L14.0508 18.119C14.0463 18.6494 13.8312 19.1563 13.4529 19.5282C13.0747 19.9 12.5642 20.1064 12.0338 20.1019L5.03402 20.042C4.50361 20.0375 3.99672 19.8224 3.62487 19.4441C3.25302 19.0659 3.04666 18.5554 3.0512 18.025L3.15382 6.0254C3.15836 5.49498 3.37341 4.9881 3.75168 4.61625C4.12995 4.24439 4.64044 4.03804 5.17085 4.04257L12.1706 4.10244C12.701 4.10697 13.2079 4.32203 13.5797 4.7003C13.9516 5.07856 14.158 5.58906 14.1534 6.11947L14.1363 8.1194" stroke="#265CC0" stroke-width="2" stroke-linecap="round" stroke-linejoin="round"/>
<path d="M9.10227 12.0765L21.1018 12.1791M21.1018 12.1791L18.0763 15.1534M21.1018 12.1791L18.1276 9.15358" stroke="#265CC0" stroke-width="2" stroke-linecap="round" stroke-linejoin="round"/>
</svg>
