<svg width="63" height="63" viewBox="0 0 63 63" fill="none" xmlns="http://www.w3.org/2000/svg">
<circle cx="31.5" cy="31.5" r="31.5" fill="#C9EEF8"/>
<path d="M42.9226 49.0974V19.477H40.2433V17.4758C40.3594 17.4601 40.4822 17.4295 40.6051 17.4291C41.6136 17.4257 42.6225 17.4139 43.6307 17.4329C44.4216 17.4479 44.9523 17.9837 44.9952 18.7646C45.0042 18.9308 44.9978 19.0978 44.9977 19.2644C44.994 24.0027 44.9872 28.741 44.9873 33.4793C44.9875 39.1059 44.9945 44.7325 44.9966 50.3592C44.997 51.5112 44.4954 51.9993 43.3156 51.9994C35.8073 52.0003 28.2989 52.0002 20.7905 51.9996C19.4545 51.9996 18.9994 51.5537 19 50.2453C19.0029 44.3952 19.0092 38.5452 19.0097 32.695C19.0101 28.1603 19.0028 23.6256 19.0008 19.0909C19.0003 17.9116 19.4817 17.4292 20.6534 17.4272C21.6776 17.4255 22.7017 17.4268 23.7623 17.4268V19.4371H21.0906V49.0974H42.9226Z" fill="#265CC0"/>
<path d="M31.9428 20.8059C30.2072 20.8063 28.4715 20.8096 26.7359 20.805C25.665 20.8021 25.1634 20.3019 25.1593 19.2414C25.1554 18.2425 25.1542 17.2434 25.1593 16.2444C25.1644 15.2373 25.6893 14.7197 26.7193 14.7075C27.4097 14.6993 28.1005 14.6964 28.7908 14.71C29.0914 14.7159 29.2477 14.6625 29.3075 14.3095C29.5411 12.9315 30.6311 12.0087 31.9701 12.0001C33.3438 11.9913 34.4567 12.913 34.69 14.3084C34.7493 14.6629 34.9037 14.7146 35.2042 14.7087C35.8945 14.695 36.5853 14.6985 37.2757 14.7061C38.3059 14.7174 38.8327 15.235 38.8383 16.2427C38.8441 17.2786 38.8476 18.3147 38.8371 19.3505C38.8278 20.2668 38.293 20.7993 37.3739 20.8031C35.5636 20.8107 33.7533 20.8054 31.943 20.8058L31.9428 20.8059Z" fill="#265CC0"/>
<path d="M27.9088 22.855C30.1728 22.8535 32.0066 24.6764 31.9992 26.921C31.9916 29.1775 30.1237 31.0177 27.8469 31.0115C25.6227 31.0053 23.7953 29.1467 23.7985 26.8938C23.8016 24.6431 25.6198 22.8565 27.9088 22.855ZM30.6023 25.8952H28.9144V24.2474H26.8551V25.9168H25.2046V27.9359H26.8643V29.5943H28.9176V27.9195H30.6023V25.8951V25.8952Z" fill="#265CC0"/>
<path d="M40.1686 41.8843V43.1633H23.8374V41.8843H40.1686Z" fill="#265CC0"/>
<path d="M40.1741 33.7065V35.0085H23.8274V33.7065H40.1741Z" fill="#265CC0"/>
<path d="M23.826 37.7362V36.4473H40.1645V37.7362H23.826Z" fill="#265CC0"/>
<path d="M40.1515 40.4392H23.8311V39.1436H40.1515V40.4392Z" fill="#265CC0"/>
<path d="M23.8215 45.8646V44.5825H36.2108V45.8646H23.8215Z" fill="#265CC0"/>
<path d="M40.1799 28.3047V29.6127H34.7709V28.3047H40.1799Z" fill="#265CC0"/>
<path d="M34.7545 24.1743V22.895H40.1602V24.1743H34.7545Z" fill="#265CC0"/>
<path d="M40.1793 25.5979V26.8732H34.774V25.5979H40.1793Z" fill="#265CC0"/>
<path d="M40.1737 31.0141V32.3105H34.7778C34.7589 32.2697 34.7212 32.2224 34.7162 32.1719C34.5988 30.9945 34.6312 30.9598 35.8168 30.9605C37.0255 30.9612 38.2342 30.9587 39.4429 30.964C39.6792 30.9651 39.9155 30.9956 40.1738 31.0141H40.1737Z" fill="#265CC0"/>
</svg>
