<svg width="52" height="52" viewBox="0 0 52 52" fill="none" xmlns="http://www.w3.org/2000/svg">
<circle cx="26" cy="26" r="26" fill="#E3DBC6"/>
<path d="M27.6928 21.776C27.6928 24.8308 27.6942 27.8857 27.6895 30.9406C27.6892 31.1308 27.7385 31.2536 27.8927 31.3848C30.0196 33.194 30.854 35.495 30.1964 38.1996C29.5425 40.8892 27.7536 42.5691 25.0505 43.1757C21.3777 44 17.6423 41.427 17.0902 37.7157C16.7039 35.119 17.5626 32.9813 19.583 31.3054C19.6517 31.2484 19.7004 31.1265 19.701 31.0344C19.7087 29.7826 19.7062 28.5307 19.7062 27.2788C19.7062 22.4141 19.7044 17.5495 19.7073 12.6848C19.7082 11.0444 20.7432 9.62639 22.3016 9.19666C23.2603 8.93229 24.2482 8.92669 25.2017 9.22723C26.7154 9.70436 27.6905 11.0877 27.692 12.6929C27.6948 15.7206 27.6928 18.7482 27.6928 21.7759L27.6928 21.776ZM26.1566 22.1808C26.1566 19.0165 26.1584 15.8522 26.1556 12.6879C26.1546 11.6152 25.4274 10.7546 24.3762 10.6015C24.0625 10.5558 23.7381 10.5778 23.4186 10.5774C22.1272 10.5757 21.2425 11.4633 21.2423 12.7589C21.2418 15.5557 21.2421 18.3525 21.2421 21.1494C21.2421 24.6948 21.241 28.2401 21.246 31.7855C21.2462 31.9398 21.2036 32.0365 21.076 32.1201C20.8999 32.2354 20.7349 32.3678 20.567 32.4953C18.7154 33.9015 18.0308 36.3768 18.8958 38.5354C19.7638 40.7016 21.9767 42.0198 24.2937 41.7506C27.9343 41.3278 29.9922 37.3516 28.2402 34.1311C27.7826 33.2899 27.1115 32.6562 26.3307 32.1271C26.1966 32.0362 26.153 31.9351 26.1532 31.7758C26.1577 28.5775 26.1566 25.3791 26.1565 22.1808L26.1566 22.1808Z" fill="#C28207"/>
<path d="M31.3747 14.8666C30.6677 14.8667 29.9607 14.8676 29.2537 14.8664C28.8702 14.8658 28.6364 14.6049 28.6408 14.1872C28.6449 13.7982 28.8778 13.5568 29.254 13.5565C30.6476 13.5557 32.0412 13.5557 33.4348 13.5566C33.7686 13.5568 33.9397 13.6752 34.0371 13.9653C34.1382 14.266 34.0529 14.6182 33.8191 14.7755C33.7355 14.8317 33.6183 14.8615 33.5161 14.8626C32.8024 14.8698 32.0885 14.8664 31.3747 14.8666L31.3747 14.8666Z" fill="#C28207"/>
<path d="M31.3494 20.6362C32.0496 20.6362 32.7498 20.6355 33.45 20.6365C33.7711 20.637 33.965 20.782 34.0498 21.0801C34.1371 21.3873 34.0305 21.7386 33.7919 21.8781C33.7145 21.9233 33.6128 21.9464 33.5221 21.9466C32.0945 21.9507 30.6669 21.9509 29.2392 21.9482C28.8702 21.9475 28.6376 21.6796 28.6408 21.275C28.6438 20.8872 28.8811 20.6368 29.2488 20.6365C29.949 20.6357 30.6492 20.6363 31.3494 20.6363L31.3494 20.6362Z" fill="#C28207"/>
<path d="M31.3763 29.0346C30.676 29.0346 29.9759 29.0351 29.2756 29.0344C28.9457 29.0341 28.7656 28.9015 28.6745 28.5955C28.5827 28.2868 28.6823 27.9419 28.9223 27.7959C28.9983 27.7497 29.1009 27.7279 29.1914 27.7276C30.6258 27.7233 32.0602 27.7225 33.4946 27.7251C33.8531 27.7258 34.0778 27.9894 34.0772 28.3899C34.0766 28.7839 33.8447 29.0339 33.4769 29.0343C32.7766 29.0352 32.0765 29.0346 31.3762 29.0345L31.3763 29.0346Z" fill="#C28207"/>
<path d="M30.5306 17.1957C30.1566 17.1956 29.7826 17.198 29.4087 17.1949C29.0017 17.1916 28.7222 16.9348 28.7236 16.5718C28.7252 16.2042 29.0037 15.9448 29.4038 15.944C30.1518 15.9426 30.8997 15.9421 31.6476 15.9451C31.9193 15.9462 32.1421 16.0515 32.2627 16.3052C32.3707 16.5326 32.3396 16.7568 32.1871 16.9582C32.0642 17.1203 31.8988 17.1981 31.6933 17.1967C31.3057 17.194 30.9181 17.1959 30.5306 17.1958V17.1957Z" fill="#C28207"/>
<path d="M30.518 19.5589C30.1304 19.5587 29.7427 19.5643 29.3552 19.5569C29.0636 19.5513 28.8338 19.3771 28.7519 19.1212C28.6731 18.8746 28.7603 18.5811 28.9784 18.4325C29.0697 18.3703 29.1883 18.3151 29.2951 18.3138C30.1041 18.3044 30.9134 18.3016 31.7224 18.3137C31.9958 18.3178 32.1975 18.4707 32.2932 18.7343C32.379 18.9706 32.3032 19.2647 32.0911 19.4121C31.9759 19.4922 31.8205 19.5459 31.6804 19.5527C31.2937 19.5714 30.9055 19.5592 30.5179 19.5589H30.518Z" fill="#C28207"/>
<path d="M30.4984 23.0332C30.8791 23.033 31.2598 23.0302 31.6405 23.0338C32.0517 23.0376 32.3249 23.2907 32.3217 23.6576C32.3185 24.027 32.0462 24.2816 31.6395 24.2833C30.8985 24.2863 30.1574 24.29 29.4165 24.2806C28.8737 24.2737 28.5659 23.8135 28.7964 23.3698C28.9085 23.1541 29.085 23.0326 29.3359 23.0331C29.7234 23.0339 30.1109 23.0333 30.4984 23.0331L30.4984 23.0332Z" fill="#C28207"/>
<path d="M30.5301 26.6343C30.1223 26.6343 29.7142 26.6438 29.3067 26.6311C29.0242 26.6223 28.7959 26.4173 28.7365 26.1574C28.6771 25.8971 28.7966 25.6064 29.0359 25.4774C29.1277 25.428 29.2411 25.3963 29.345 25.3954C30.1199 25.3887 30.8949 25.3902 31.6698 25.393C31.9269 25.3939 32.1351 25.4993 32.2552 25.7324C32.3668 25.949 32.3467 26.168 32.211 26.3706C32.0886 26.5532 31.915 26.6413 31.6926 26.6396C31.3051 26.6365 30.9176 26.6387 30.5301 26.6387V26.6344V26.6343Z" fill="#C28207"/>
<path d="M22.4856 24.0593C22.4856 21.2566 22.4855 18.4538 22.4856 15.6511C22.4856 14.996 22.806 14.6778 23.4643 14.6779C23.6684 14.678 23.8726 14.674 24.0765 14.6793C24.5513 14.6918 24.8946 15.0336 24.9129 15.5075C24.9155 15.5754 24.9137 15.6435 24.9137 15.7115C24.9137 21.3034 24.9149 26.8953 24.9091 32.4872C24.9089 32.6954 24.9646 32.8167 25.1536 32.9162C25.82 33.2668 26.4476 33.6734 26.8803 34.3132C27.7832 35.6482 27.9098 37.0593 27.1443 38.4764C26.3785 39.8939 25.1258 40.5794 23.5167 40.5329C21.7877 40.4831 20.3143 39.2501 19.8843 37.5543C19.4698 35.9195 20.1956 34.1486 21.6441 33.2649C21.8645 33.1304 22.0851 32.9949 22.3132 32.8742C22.4443 32.8048 22.4896 32.7187 22.489 32.5696C22.4835 31.0526 22.4856 29.5356 22.4856 28.0186C22.4856 26.6989 22.4856 25.3791 22.4856 24.0593Z" fill="#C28207"/>
</svg>
