<svg width="19" height="19" viewBox="0 0 19 19" fill="none" xmlns="http://www.w3.org/2000/svg">
<path d="M16.0312 2.52344H12.4687C12.3506 2.52344 12.2373 2.57035 12.1538 2.65387C12.0703 2.73738 12.0234 2.85065 12.0234 2.96875C12.0234 3.08685 12.0703 3.20012 12.1538 3.28363C12.2373 3.36715 12.3506 3.41406 12.4687 3.41406H14.9565L11.4831 6.88676C10.6279 6.15441 9.57765 5.68734 8.46104 5.54276C7.34443 5.39817 6.20989 5.58235 5.19635 6.07272C4.18281 6.5631 3.33427 7.3384 2.75464 8.30367C2.175 9.26894 1.88944 10.3823 1.93291 11.5074C1.97638 12.6325 2.34699 13.7205 2.99938 14.6382C3.65176 15.5558 4.55759 16.2633 5.60595 16.6741C6.6543 17.0848 7.79967 17.1809 8.9018 16.9506C10.0039 16.7202 11.015 16.1735 11.8111 15.3774C12.8406 14.3452 13.4434 12.963 13.4994 11.5062C13.5554 10.0494 13.0604 8.62506 12.1132 7.51687L15.5859 4.04418V6.53125C15.5859 6.64935 15.6328 6.76262 15.7163 6.84613C15.7998 6.92965 15.9131 6.97656 16.0312 6.97656C16.1493 6.97656 16.2626 6.92965 16.3461 6.84613C16.4296 6.76262 16.4765 6.64935 16.4765 6.53125V2.96875C16.4765 2.85065 16.4296 2.73738 16.3461 2.65387C16.2626 2.57035 16.1493 2.52344 16.0312 2.52344ZM11.1818 14.7473C10.4966 15.4321 9.62378 15.8984 8.67364 16.0872C7.7235 16.276 6.73871 16.1789 5.84377 15.8081C4.94883 15.4373 4.18393 14.8094 3.64579 14.0039C3.10764 13.1984 2.82041 12.2515 2.82041 11.2827C2.82041 10.314 3.10764 9.36704 3.64579 8.56155C4.18393 7.75605 4.94883 7.12821 5.84377 6.75739C6.73871 6.38657 7.7235 6.28943 8.67364 6.47825C9.62378 6.66707 10.4966 7.13337 11.1818 7.8182C12.0991 8.73787 12.6142 9.98379 12.6142 11.2827C12.6142 12.5817 12.0991 13.8276 11.1818 14.7473Z" fill="#878787"/>
</svg>
